<?xml version="1.0" encoding="utf-8" standalone="no"?>
<!DOCTYPE svg PUBLIC "-//W3C//DTD SVG 1.1//EN"
  "http://www.w3.org/Graphics/SVG/1.1/DTD/svg11.dtd">
<!-- Created with matplotlib (http://matplotlib.org/) -->
<svg height="919pt" version="1.1" viewBox="0 0 1669 919" width="1669pt" xmlns="http://www.w3.org/2000/svg" xmlns:xlink="http://www.w3.org/1999/xlink">
 <defs>
  <style type="text/css">
*{stroke-linecap:butt;stroke-linejoin:round;stroke-miterlimit:100000;}
  </style>
 </defs>
 <g id="figure_1">
  <g id="patch_1">
   <path d="M 0 919.8 
L 1669.5 919.8 
L 1669.5 0 
L 0 0 
z
" style="fill:#ffffff;"/>
  </g>
  <g id="axes_1">
   <g id="patch_2">
    <path d="M 208.6875 827.82 
L 1502.55 827.82 
L 1502.55 91.98 
L 208.6875 91.98 
z
" style="fill:#ffffff;"/>
   </g>
   <g id="matplotlib.axis_1">
    <g id="xtick_1">
     <g id="line2d_1">
      <path clip-path="url(#pf42c8254c2)" d="M 254.216871 827.82 
L 254.216871 91.98 
" style="fill:none;stroke:#cccccc;stroke-linecap:round;stroke-width:0.8;"/>
     </g>
     <g id="line2d_2">
      <defs>
       <path d="M 0 0 
L 0 0 
" id="mb6e7151610" style="stroke:#262626;stroke-width:0.8;"/>
      </defs>
      <g>
       <use style="fill:#262626;stroke:#262626;stroke-width:0.8;" x="254.216871252" xlink:href="#mb6e7151610" y="827.82"/>
      </g>
     </g>
     <g id="line2d_3">
      <g>
       <use style="fill:#262626;stroke:#262626;stroke-width:0.8;" x="254.216871252" xlink:href="#mb6e7151610" y="91.98"/>
      </g>
     </g>
     <g id="text_1">
      <!-- 5800 -->
      <defs>
       <path d="M 51.421875 22.40625 
Q 51.421875 17.234375 49.859375 12.9375 
Q 48.296875 8.640625 45.21875 5.53125 
Q 42.140625 2.4375 37.578125 0.71875 
Q 33.015625 -0.984375 27 -0.984375 
Q 21.578125 -0.984375 17.546875 0.28125 
Q 13.53125 1.5625 10.734375 3.78125 
Q 7.953125 6 6.3125 8.984375 
Q 4.6875 11.96875 4 15.375 
L 12.890625 16.40625 
Q 13.421875 14.453125 14.390625 12.625 
Q 15.375 10.796875 17.0625 9.34375 
Q 18.75 7.90625 21.21875 7.046875 
Q 23.6875 6.203125 27.203125 6.203125 
Q 30.609375 6.203125 33.390625 7.25 
Q 36.1875 8.296875 38.15625 10.34375 
Q 40.140625 12.40625 41.203125 15.375 
Q 42.28125 18.359375 42.28125 22.21875 
Q 42.28125 25.390625 41.25 28.046875 
Q 40.234375 30.71875 38.328125 32.640625 
Q 36.421875 34.578125 33.65625 35.640625 
Q 30.90625 36.71875 27.390625 36.71875 
Q 25.203125 36.71875 23.34375 36.328125 
Q 21.484375 35.9375 19.890625 35.25 
Q 18.3125 34.578125 17.015625 33.671875 
Q 15.71875 32.765625 14.59375 31.78125 
L 6 31.78125 
L 8.296875 68.796875 
L 47.40625 68.796875 
L 47.40625 61.328125 
L 16.3125 61.328125 
L 14.984375 39.5 
Q 17.328125 41.3125 20.84375 42.59375 
Q 24.359375 43.890625 29.203125 43.890625 
Q 34.328125 43.890625 38.421875 42.328125 
Q 42.53125 40.765625 45.40625 37.90625 
Q 48.296875 35.0625 49.859375 31.109375 
Q 51.421875 27.15625 51.421875 22.40625 
" id="LiberationSans-35"/>
       <path d="M 51.703125 34.421875 
Q 51.703125 24.515625 49.828125 17.75 
Q 47.953125 10.984375 44.703125 6.8125 
Q 41.453125 2.640625 37.0625 0.828125 
Q 32.671875 -0.984375 27.6875 -0.984375 
Q 22.65625 -0.984375 18.3125 0.828125 
Q 13.96875 2.640625 10.765625 6.78125 
Q 7.5625 10.9375 5.734375 17.703125 
Q 3.90625 24.46875 3.90625 34.421875 
Q 3.90625 44.828125 5.734375 51.640625 
Q 7.5625 58.453125 10.78125 62.5 
Q 14.015625 66.546875 18.40625 68.1875 
Q 22.796875 69.828125 27.984375 69.828125 
Q 32.90625 69.828125 37.21875 68.1875 
Q 41.546875 66.546875 44.765625 62.5 
Q 48 58.453125 49.84375 51.640625 
Q 51.703125 44.828125 51.703125 34.421875 
M 42.78125 34.421875 
Q 42.78125 42.625 41.796875 48.0625 
Q 40.828125 53.515625 38.921875 56.765625 
Q 37.015625 60.015625 34.25 61.359375 
Q 31.5 62.703125 27.984375 62.703125 
Q 24.265625 62.703125 21.4375 61.328125 
Q 18.609375 59.96875 16.671875 56.71875 
Q 14.75 53.46875 13.765625 48.015625 
Q 12.796875 42.578125 12.796875 34.421875 
Q 12.796875 26.515625 13.796875 21.09375 
Q 14.796875 15.671875 16.71875 12.375 
Q 18.65625 9.078125 21.4375 7.640625 
Q 24.21875 6.203125 27.78125 6.203125 
Q 31.25 6.203125 34.03125 7.640625 
Q 36.8125 9.078125 38.734375 12.375 
Q 40.671875 15.671875 41.71875 21.09375 
Q 42.78125 26.515625 42.78125 34.421875 
" id="LiberationSans-30"/>
       <path d="M 51.265625 19.1875 
Q 51.265625 14.796875 49.875 11.109375 
Q 48.484375 7.421875 45.625 4.734375 
Q 42.78125 2.046875 38.328125 0.53125 
Q 33.890625 -0.984375 27.828125 -0.984375 
Q 21.78125 -0.984375 17.359375 0.53125 
Q 12.9375 2.046875 10.03125 4.703125 
Q 7.125 7.375 5.734375 11.0625 
Q 4.34375 14.75 4.34375 19.09375 
Q 4.34375 22.859375 5.484375 25.78125 
Q 6.640625 28.71875 8.5625 30.828125 
Q 10.5 32.953125 12.96875 34.25 
Q 15.4375 35.546875 18.0625 35.984375 
L 18.0625 36.1875 
Q 15.1875 36.859375 12.90625 38.375 
Q 10.640625 39.890625 9.09375 42.015625 
Q 7.5625 44.140625 6.75 46.71875 
Q 5.953125 49.3125 5.953125 52.203125 
Q 5.953125 55.8125 7.34375 59 
Q 8.734375 62.203125 11.46875 64.625 
Q 14.203125 67.046875 18.25 68.4375 
Q 22.3125 69.828125 27.640625 69.828125 
Q 33.25 69.828125 37.375 68.40625 
Q 41.5 67 44.203125 64.578125 
Q 46.921875 62.15625 48.234375 58.9375 
Q 49.5625 55.71875 49.5625 52.09375 
Q 49.5625 49.265625 48.75 46.671875 
Q 47.953125 44.09375 46.40625 41.96875 
Q 44.875 39.84375 42.59375 38.34375 
Q 40.328125 36.859375 37.359375 36.28125 
L 37.359375 36.078125 
Q 40.328125 35.59375 42.859375 34.296875 
Q 45.40625 33.015625 47.265625 30.890625 
Q 49.125 28.765625 50.1875 25.828125 
Q 51.265625 22.90625 51.265625 19.1875 
M 40.4375 51.609375 
Q 40.4375 54.203125 39.765625 56.34375 
Q 39.109375 58.5 37.59375 60.03125 
Q 36.078125 61.578125 33.640625 62.421875 
Q 31.203125 63.28125 27.640625 63.28125 
Q 24.171875 63.28125 21.78125 62.421875 
Q 19.390625 61.578125 17.84375 60.03125 
Q 16.3125 58.5 15.625 56.34375 
Q 14.9375 54.203125 14.9375 51.609375 
Q 14.9375 49.5625 15.46875 47.40625 
Q 16.015625 45.265625 17.421875 43.5 
Q 18.84375 41.75 21.328125 40.625 
Q 23.828125 39.5 27.734375 39.5 
Q 31.890625 39.5 34.40625 40.625 
Q 36.921875 41.75 38.25 43.5 
Q 39.59375 45.265625 40.015625 47.40625 
Q 40.4375 49.5625 40.4375 51.609375 
M 42.140625 20.015625 
Q 42.140625 22.515625 41.453125 24.828125 
Q 40.765625 27.15625 39.109375 28.9375 
Q 37.453125 30.71875 34.640625 31.8125 
Q 31.84375 32.90625 27.640625 32.90625 
Q 23.78125 32.90625 21.0625 31.8125 
Q 18.359375 30.71875 16.671875 28.90625 
Q 14.984375 27.09375 14.203125 24.71875 
Q 13.421875 22.359375 13.421875 19.828125 
Q 13.421875 16.65625 14.203125 14.03125 
Q 14.984375 11.421875 16.6875 9.546875 
Q 18.40625 7.671875 21.1875 6.640625 
Q 23.96875 5.609375 27.9375 5.609375 
Q 31.9375 5.609375 34.671875 6.640625 
Q 37.40625 7.671875 39.0625 9.546875 
Q 40.71875 11.421875 41.421875 14.078125 
Q 42.140625 16.75 42.140625 20.015625 
" id="LiberationSans-38"/>
      </defs>
      <g style="fill:#262626;" transform="translate(245.319371252 839.2175)scale(0.08 -0.08)">
       <use xlink:href="#LiberationSans-35"/>
       <use x="55.615234375" xlink:href="#LiberationSans-38"/>
       <use x="111.23046875" xlink:href="#LiberationSans-30"/>
       <use x="166.845703125" xlink:href="#LiberationSans-30"/>
      </g>
     </g>
    </g>
    <g id="xtick_2">
     <g id="line2d_4">
      <path clip-path="url(#pf42c8254c2)" d="M 531.485822 827.82 
L 531.485822 91.98 
" style="fill:none;stroke:#cccccc;stroke-linecap:round;stroke-width:0.8;"/>
     </g>
     <g id="line2d_5">
      <g>
       <use style="fill:#262626;stroke:#262626;stroke-width:0.8;" x="531.485822391" xlink:href="#mb6e7151610" y="827.82"/>
      </g>
     </g>
     <g id="line2d_6">
      <g>
       <use style="fill:#262626;stroke:#262626;stroke-width:0.8;" x="531.485822391" xlink:href="#mb6e7151610" y="91.98"/>
      </g>
     </g>
     <g id="text_2">
      <!-- 5900 -->
      <defs>
       <path d="M 50.875 35.796875 
Q 50.875 26.609375 49.140625 19.703125 
Q 47.40625 12.796875 44.1875 8.203125 
Q 40.96875 3.609375 36.34375 1.3125 
Q 31.734375 -0.984375 25.984375 -0.984375 
Q 22.015625 -0.984375 18.84375 -0.171875 
Q 15.671875 0.640625 13.171875 2.34375 
Q 10.6875 4.046875 8.921875 6.78125 
Q 7.171875 9.515625 6.109375 13.375 
L 14.5 14.703125 
Q 15.875 10.25 18.78125 8.171875 
Q 21.6875 6.109375 26.125 6.109375 
Q 29.6875 6.109375 32.640625 7.78125 
Q 35.59375 9.46875 37.671875 12.84375 
Q 39.75 16.21875 40.921875 21.296875 
Q 42.09375 26.375 42.1875 33.203125 
Q 41.15625 30.90625 39.375 29.09375 
Q 37.59375 27.296875 35.328125 26.046875 
Q 33.0625 24.8125 30.421875 24.140625 
Q 27.78125 23.484375 25.09375 23.484375 
Q 20.40625 23.484375 16.625 25.171875 
Q 12.84375 26.859375 10.203125 29.875 
Q 7.5625 32.90625 6.125 37.171875 
Q 4.6875 41.453125 4.6875 46.6875 
Q 4.6875 52 6.21875 56.296875 
Q 7.765625 60.59375 10.6875 63.59375 
Q 13.625 66.609375 17.890625 68.21875 
Q 22.171875 69.828125 27.59375 69.828125 
Q 39.0625 69.828125 44.96875 61.328125 
Q 50.875 52.828125 50.875 35.796875 
M 41.3125 44.28125 
Q 41.3125 48.09375 40.40625 51.453125 
Q 39.5 54.828125 37.71875 57.3125 
Q 35.9375 59.8125 33.328125 61.25 
Q 30.71875 62.703125 27.296875 62.703125 
Q 24.125 62.703125 21.578125 61.578125 
Q 19.046875 60.453125 17.28125 58.375 
Q 15.53125 56.296875 14.578125 53.3125 
Q 13.625 50.34375 13.625 46.6875 
Q 13.625 43.21875 14.46875 40.234375 
Q 15.328125 37.25 17.03125 35.078125 
Q 18.75 32.90625 21.28125 31.65625 
Q 23.828125 30.421875 27.203125 30.421875 
Q 29.640625 30.421875 32.15625 31.25 
Q 34.671875 32.078125 36.6875 33.78125 
Q 38.71875 35.5 40.015625 38.109375 
Q 41.3125 40.71875 41.3125 44.28125 
" id="LiberationSans-39"/>
      </defs>
      <g style="fill:#262626;" transform="translate(522.588322391 839.2175)scale(0.08 -0.08)">
       <use xlink:href="#LiberationSans-35"/>
       <use x="55.615234375" xlink:href="#LiberationSans-39"/>
       <use x="111.23046875" xlink:href="#LiberationSans-30"/>
       <use x="166.845703125" xlink:href="#LiberationSans-30"/>
      </g>
     </g>
    </g>
    <g id="xtick_3">
     <g id="line2d_7">
      <path clip-path="url(#pf42c8254c2)" d="M 808.754774 827.82 
L 808.754774 91.98 
" style="fill:none;stroke:#cccccc;stroke-linecap:round;stroke-width:0.8;"/>
     </g>
     <g id="line2d_8">
      <g>
       <use style="fill:#262626;stroke:#262626;stroke-width:0.8;" x="808.75477353" xlink:href="#mb6e7151610" y="827.82"/>
      </g>
     </g>
     <g id="line2d_9">
      <g>
       <use style="fill:#262626;stroke:#262626;stroke-width:0.8;" x="808.75477353" xlink:href="#mb6e7151610" y="91.98"/>
      </g>
     </g>
     <g id="text_3">
      <!-- 6000 -->
      <defs>
       <path d="M 51.21875 22.515625 
Q 51.21875 17.328125 49.78125 13 
Q 48.34375 8.6875 45.53125 5.578125 
Q 42.71875 2.484375 38.5625 0.75 
Q 34.421875 -0.984375 29 -0.984375 
Q 23 -0.984375 18.5 1.3125 
Q 14.015625 3.609375 11.03125 7.921875 
Q 8.0625 12.25 6.5625 18.53125 
Q 5.078125 24.8125 5.078125 32.8125 
Q 5.078125 42 6.765625 48.921875 
Q 8.453125 55.859375 11.625 60.5 
Q 14.796875 65.140625 19.359375 67.484375 
Q 23.921875 69.828125 29.6875 69.828125 
Q 33.203125 69.828125 36.28125 69.09375 
Q 39.359375 68.359375 41.875 66.71875 
Q 44.390625 65.09375 46.28125 62.40625 
Q 48.1875 59.71875 49.3125 55.8125 
L 40.921875 54.296875 
Q 39.546875 58.734375 36.546875 60.71875 
Q 33.546875 62.703125 29.59375 62.703125 
Q 25.984375 62.703125 23.046875 60.984375 
Q 20.125 59.28125 18.0625 55.875 
Q 16.015625 52.484375 14.90625 47.359375 
Q 13.8125 42.234375 13.8125 35.40625 
Q 16.21875 39.84375 20.5625 42.15625 
Q 24.90625 44.484375 30.515625 44.484375 
Q 35.203125 44.484375 39.015625 42.96875 
Q 42.828125 41.453125 45.53125 38.59375 
Q 48.25 35.75 49.734375 31.671875 
Q 51.21875 27.59375 51.21875 22.515625 
M 42.28125 22.125 
Q 42.28125 25.6875 41.40625 28.5625 
Q 40.53125 31.453125 38.765625 33.46875 
Q 37.015625 35.5 34.421875 36.59375 
Q 31.84375 37.703125 28.421875 37.703125 
Q 26.03125 37.703125 23.578125 36.984375 
Q 21.140625 36.28125 19.15625 34.6875 
Q 17.1875 33.109375 15.9375 30.515625 
Q 14.703125 27.9375 14.703125 24.21875 
Q 14.703125 20.40625 15.671875 17.109375 
Q 16.65625 13.8125 18.484375 11.375 
Q 20.3125 8.9375 22.890625 7.515625 
Q 25.484375 6.109375 28.71875 6.109375 
Q 31.890625 6.109375 34.40625 7.203125 
Q 36.921875 8.296875 38.671875 10.375 
Q 40.4375 12.453125 41.359375 15.421875 
Q 42.28125 18.40625 42.28125 22.125 
" id="LiberationSans-36"/>
      </defs>
      <g style="fill:#262626;" transform="translate(799.85727353 839.2175)scale(0.08 -0.08)">
       <use xlink:href="#LiberationSans-36"/>
       <use x="55.615234375" xlink:href="#LiberationSans-30"/>
       <use x="111.23046875" xlink:href="#LiberationSans-30"/>
       <use x="166.845703125" xlink:href="#LiberationSans-30"/>
      </g>
     </g>
    </g>
    <g id="xtick_4">
     <g id="line2d_10">
      <path clip-path="url(#pf42c8254c2)" d="M 1086.023725 827.82 
L 1086.023725 91.98 
" style="fill:none;stroke:#cccccc;stroke-linecap:round;stroke-width:0.8;"/>
     </g>
     <g id="line2d_11">
      <g>
       <use style="fill:#262626;stroke:#262626;stroke-width:0.8;" x="1086.02372467" xlink:href="#mb6e7151610" y="827.82"/>
      </g>
     </g>
     <g id="line2d_12">
      <g>
       <use style="fill:#262626;stroke:#262626;stroke-width:0.8;" x="1086.02372467" xlink:href="#mb6e7151610" y="91.98"/>
      </g>
     </g>
     <g id="text_4">
      <!-- 6100 -->
      <defs>
       <path d="M 7.625 0 
L 7.625 7.46875 
L 25.140625 7.46875 
L 25.140625 60.40625 
L 9.625 49.3125 
L 9.625 57.625 
L 25.875 68.796875 
L 33.984375 68.796875 
L 33.984375 7.46875 
L 50.734375 7.46875 
L 50.734375 0 
z
" id="LiberationSans-31"/>
      </defs>
      <g style="fill:#262626;" transform="translate(1077.12622467 839.2175)scale(0.08 -0.08)">
       <use xlink:href="#LiberationSans-36"/>
       <use x="55.615234375" xlink:href="#LiberationSans-31"/>
       <use x="111.23046875" xlink:href="#LiberationSans-30"/>
       <use x="166.845703125" xlink:href="#LiberationSans-30"/>
      </g>
     </g>
    </g>
    <g id="xtick_5">
     <g id="line2d_13">
      <path clip-path="url(#pf42c8254c2)" d="M 1363.292676 827.82 
L 1363.292676 91.98 
" style="fill:none;stroke:#cccccc;stroke-linecap:round;stroke-width:0.8;"/>
     </g>
     <g id="line2d_14">
      <g>
       <use style="fill:#262626;stroke:#262626;stroke-width:0.8;" x="1363.29267581" xlink:href="#mb6e7151610" y="827.82"/>
      </g>
     </g>
     <g id="line2d_15">
      <g>
       <use style="fill:#262626;stroke:#262626;stroke-width:0.8;" x="1363.29267581" xlink:href="#mb6e7151610" y="91.98"/>
      </g>
     </g>
     <g id="text_5">
      <!-- 6200 -->
      <defs>
       <path d="M 5.03125 0 
L 5.03125 6.203125 
Q 7.515625 11.921875 11.109375 16.28125 
Q 14.703125 20.65625 18.65625 24.1875 
Q 22.609375 27.734375 26.484375 30.765625 
Q 30.375 33.796875 33.5 36.8125 
Q 36.625 39.84375 38.546875 43.15625 
Q 40.484375 46.484375 40.484375 50.6875 
Q 40.484375 53.609375 39.59375 55.828125 
Q 38.71875 58.0625 37.0625 59.5625 
Q 35.40625 61.078125 33.078125 61.828125 
Q 30.765625 62.59375 27.9375 62.59375 
Q 25.296875 62.59375 22.96875 61.859375 
Q 20.65625 61.140625 18.84375 59.671875 
Q 17.046875 58.203125 15.890625 56.03125 
Q 14.75 53.859375 14.40625 50.984375 
L 5.421875 51.8125 
Q 5.859375 55.515625 7.46875 58.78125 
Q 9.078125 62.0625 11.90625 64.53125 
Q 14.75 67 18.71875 68.40625 
Q 22.703125 69.828125 27.9375 69.828125 
Q 33.0625 69.828125 37.0625 68.609375 
Q 41.0625 67.390625 43.8125 64.984375 
Q 46.578125 62.59375 48.046875 59.078125 
Q 49.515625 55.5625 49.515625 50.984375 
Q 49.515625 47.515625 48.265625 44.390625 
Q 47.015625 41.265625 44.9375 38.421875 
Q 42.875 35.59375 40.140625 32.953125 
Q 37.40625 30.328125 34.421875 27.8125 
Q 31.453125 25.296875 28.421875 22.828125 
Q 25.390625 20.359375 22.71875 17.859375 
Q 20.0625 15.375 17.96875 12.8125 
Q 15.875 10.25 14.703125 7.46875 
L 50.59375 7.46875 
L 50.59375 0 
z
" id="LiberationSans-32"/>
      </defs>
      <g style="fill:#262626;" transform="translate(1354.39517581 839.2175)scale(0.08 -0.08)">
       <use xlink:href="#LiberationSans-36"/>
       <use x="55.615234375" xlink:href="#LiberationSans-32"/>
       <use x="111.23046875" xlink:href="#LiberationSans-30"/>
       <use x="166.845703125" xlink:href="#LiberationSans-30"/>
      </g>
     </g>
    </g>
   </g>
   <g id="matplotlib.axis_2">
    <g id="ytick_1">
     <g id="line2d_16">
      <path clip-path="url(#pf42c8254c2)" d="M 208.6875 789.888059 
L 1502.55 789.888059 
" style="fill:none;stroke:#cccccc;stroke-linecap:round;stroke-width:0.8;"/>
     </g>
     <g id="line2d_17">
      <g>
       <use style="fill:#262626;stroke:#262626;stroke-width:0.8;" x="208.6875" xlink:href="#mb6e7151610" y="789.888059107"/>
      </g>
     </g>
     <g id="line2d_18">
      <g>
       <use style="fill:#262626;stroke:#262626;stroke-width:0.8;" x="1502.55" xlink:href="#mb6e7151610" y="789.888059107"/>
      </g>
     </g>
     <g id="text_6">
      <!-- −20 -->
      <defs>
       <path d="M 4.9375 29.6875 
L 4.9375 36.8125 
L 53.515625 36.8125 
L 53.515625 29.6875 
z
" id="LiberationSans-2212"/>
      </defs>
      <g style="fill:#262626;" transform="translate(189.5175 791.956809107)scale(0.08 -0.08)">
       <use xlink:href="#LiberationSans-2212"/>
       <use x="58.3984375" xlink:href="#LiberationSans-32"/>
       <use x="114.013671875" xlink:href="#LiberationSans-30"/>
      </g>
     </g>
    </g>
    <g id="ytick_2">
     <g id="line2d_19">
      <path clip-path="url(#pf42c8254c2)" d="M 208.6875 625.919725 
L 1502.55 625.919725 
" style="fill:none;stroke:#cccccc;stroke-linecap:round;stroke-width:0.8;"/>
     </g>
     <g id="line2d_20">
      <g>
       <use style="fill:#262626;stroke:#262626;stroke-width:0.8;" x="208.6875" xlink:href="#mb6e7151610" y="625.919724795"/>
      </g>
     </g>
     <g id="line2d_21">
      <g>
       <use style="fill:#262626;stroke:#262626;stroke-width:0.8;" x="1502.55" xlink:href="#mb6e7151610" y="625.919724795"/>
      </g>
     </g>
     <g id="text_7">
      <!-- −10 -->
      <g style="fill:#262626;" transform="translate(189.5175 627.988474795)scale(0.08 -0.08)">
       <use xlink:href="#LiberationSans-2212"/>
       <use x="58.3984375" xlink:href="#LiberationSans-31"/>
       <use x="114.013671875" xlink:href="#LiberationSans-30"/>
      </g>
     </g>
    </g>
    <g id="ytick_3">
     <g id="line2d_22">
      <path clip-path="url(#pf42c8254c2)" d="M 208.6875 461.95139 
L 1502.55 461.95139 
" style="fill:none;stroke:#cccccc;stroke-linecap:round;stroke-width:0.8;"/>
     </g>
     <g id="line2d_23">
      <g>
       <use style="fill:#262626;stroke:#262626;stroke-width:0.8;" x="208.6875" xlink:href="#mb6e7151610" y="461.951390483"/>
      </g>
     </g>
     <g id="line2d_24">
      <g>
       <use style="fill:#262626;stroke:#262626;stroke-width:0.8;" x="1502.55" xlink:href="#mb6e7151610" y="461.951390483"/>
      </g>
     </g>
     <g id="text_8">
      <!-- 0 -->
      <g style="fill:#262626;" transform="translate(198.63875 464.020140483)scale(0.08 -0.08)">
       <use xlink:href="#LiberationSans-30"/>
      </g>
     </g>
    </g>
    <g id="ytick_4">
     <g id="line2d_25">
      <path clip-path="url(#pf42c8254c2)" d="M 208.6875 297.983056 
L 1502.55 297.983056 
" style="fill:none;stroke:#cccccc;stroke-linecap:round;stroke-width:0.8;"/>
     </g>
     <g id="line2d_26">
      <g>
       <use style="fill:#262626;stroke:#262626;stroke-width:0.8;" x="208.6875" xlink:href="#mb6e7151610" y="297.983056171"/>
      </g>
     </g>
     <g id="line2d_27">
      <g>
       <use style="fill:#262626;stroke:#262626;stroke-width:0.8;" x="1502.55" xlink:href="#mb6e7151610" y="297.983056171"/>
      </g>
     </g>
     <g id="text_9">
      <!-- 10 -->
      <g style="fill:#262626;" transform="translate(194.19 300.051806171)scale(0.08 -0.08)">
       <use xlink:href="#LiberationSans-31"/>
       <use x="55.615234375" xlink:href="#LiberationSans-30"/>
      </g>
     </g>
    </g>
    <g id="ytick_5">
     <g id="line2d_28">
      <path clip-path="url(#pf42c8254c2)" d="M 208.6875 134.014722 
L 1502.55 134.014722 
" style="fill:none;stroke:#cccccc;stroke-linecap:round;stroke-width:0.8;"/>
     </g>
     <g id="line2d_29">
      <g>
       <use style="fill:#262626;stroke:#262626;stroke-width:0.8;" x="208.6875" xlink:href="#mb6e7151610" y="134.014721859"/>
      </g>
     </g>
     <g id="line2d_30">
      <g>
       <use style="fill:#262626;stroke:#262626;stroke-width:0.8;" x="1502.55" xlink:href="#mb6e7151610" y="134.014721859"/>
      </g>
     </g>
     <g id="text_10">
      <!-- 20 -->
      <g style="fill:#262626;" transform="translate(194.19 136.083471859)scale(0.08 -0.08)">
       <use xlink:href="#LiberationSans-32"/>
       <use x="55.615234375" xlink:href="#LiberationSans-30"/>
      </g>
     </g>
    </g>
    <g id="text_11">
     <!-- angle/distance x10/direction x10 -->
     <defs>
      <path d="M 40.09375 8.5 
Q 37.640625 3.421875 33.609375 1.21875 
Q 29.59375 -0.984375 23.640625 -0.984375 
Q 13.625 -0.984375 8.90625 5.75 
Q 4.203125 12.5 4.203125 26.171875 
Q 4.203125 53.8125 23.640625 53.8125 
Q 29.640625 53.8125 33.640625 51.609375 
Q 37.640625 49.421875 40.09375 44.625 
L 40.1875 44.625 
Q 40.1875 45.125 40.15625 46.171875 
Q 40.140625 47.21875 40.109375 48.359375 
Q 40.09375 49.515625 40.09375 50.53125 
Q 40.09375 51.5625 40.09375 52 
L 40.09375 72.46875 
L 48.875 72.46875 
L 48.875 10.890625 
Q 48.875 8.984375 48.890625 7.21875 
Q 48.921875 5.46875 48.96875 4 
Q 49.03125 2.546875 49.078125 1.484375 
Q 49.125 0.4375 49.171875 0 
L 40.765625 0 
Q 40.671875 0.484375 40.59375 1.390625 
Q 40.53125 2.296875 40.453125 3.46875 
Q 40.375 4.640625 40.328125 5.9375 
Q 40.28125 7.234375 40.28125 8.5 
z
M 13.421875 26.46875 
Q 13.421875 21 14.109375 17.09375 
Q 14.796875 13.1875 16.3125 10.671875 
Q 17.828125 8.15625 20.171875 6.984375 
Q 22.515625 5.8125 25.875 5.8125 
Q 29.34375 5.8125 32 6.9375 
Q 34.671875 8.0625 36.453125 10.578125 
Q 38.234375 13.09375 39.15625 17.140625 
Q 40.09375 21.1875 40.09375 27.046875 
Q 40.09375 32.671875 39.15625 36.546875 
Q 38.234375 40.4375 36.421875 42.828125 
Q 34.625 45.21875 32 46.265625 
Q 29.390625 47.3125 25.984375 47.3125 
Q 22.75 47.3125 20.40625 46.1875 
Q 18.0625 45.0625 16.5 42.578125 
Q 14.9375 40.09375 14.171875 36.109375 
Q 13.421875 32.125 13.421875 26.46875 
" id="LiberationSans-64"/>
      <path d="M 13.484375 24.5625 
Q 13.484375 20.40625 14.328125 16.90625 
Q 15.1875 13.421875 16.96875 10.90625 
Q 18.75 8.40625 21.53125 7 
Q 24.3125 5.609375 28.21875 5.609375 
Q 33.9375 5.609375 37.375 7.90625 
Q 40.828125 10.203125 42.046875 13.71875 
L 49.75 11.53125 
Q 48.921875 9.328125 47.4375 7.109375 
Q 45.953125 4.890625 43.453125 3.09375 
Q 40.96875 1.3125 37.234375 0.15625 
Q 33.5 -0.984375 28.21875 -0.984375 
Q 16.5 -0.984375 10.375 6 
Q 4.25 12.984375 4.25 26.765625 
Q 4.25 34.1875 6.09375 39.328125 
Q 7.953125 44.484375 11.171875 47.703125 
Q 14.40625 50.921875 18.703125 52.359375 
Q 23 53.8125 27.875 53.8125 
Q 34.515625 53.8125 38.984375 51.65625 
Q 43.453125 49.515625 46.15625 45.71875 
Q 48.875 41.9375 50.015625 36.8125 
Q 51.171875 31.6875 51.171875 25.734375 
L 51.171875 24.5625 
z
M 42.09375 31.296875 
Q 41.359375 39.65625 37.84375 43.484375 
Q 34.328125 47.3125 27.734375 47.3125 
Q 25.53125 47.3125 23.109375 46.609375 
Q 20.703125 45.90625 18.65625 44.09375 
Q 16.609375 42.28125 15.1875 39.171875 
Q 13.765625 36.078125 13.578125 31.296875 
z
" id="LiberationSans-65"/>
      <path d="M 26.765625 -20.75 
Q 22.21875 -20.75 18.703125 -19.8125 
Q 15.1875 -18.890625 12.6875 -17.15625 
Q 10.203125 -15.4375 8.640625 -13.03125 
Q 7.078125 -10.640625 6.390625 -7.71875 
L 15.234375 -6.453125 
Q 16.109375 -10.109375 19.109375 -12.078125 
Q 22.125 -14.0625 27 -14.0625 
Q 29.984375 -14.0625 32.421875 -13.234375 
Q 34.859375 -12.40625 36.5625 -10.5625 
Q 38.28125 -8.734375 39.203125 -5.796875 
Q 40.140625 -2.875 40.140625 1.3125 
L 40.140625 9.8125 
L 40.046875 9.8125 
Q 39.0625 7.8125 37.625 5.984375 
Q 36.1875 4.15625 34.109375 2.734375 
Q 32.03125 1.3125 29.296875 0.453125 
Q 26.5625 -0.390625 23.046875 -0.390625 
Q 18.015625 -0.390625 14.421875 1.296875 
Q 10.84375 2.984375 8.5625 6.34375 
Q 6.296875 9.71875 5.25 14.71875 
Q 4.203125 19.734375 4.203125 26.3125 
Q 4.203125 32.671875 5.25 37.75 
Q 6.296875 42.828125 8.65625 46.359375 
Q 11.03125 49.90625 14.8125 51.78125 
Q 18.609375 53.65625 24.03125 53.65625 
Q 29.640625 53.65625 33.765625 51.09375 
Q 37.890625 48.53125 40.140625 43.796875 
L 40.234375 43.796875 
Q 40.234375 45.015625 40.296875 46.53125 
Q 40.375 48.046875 40.453125 49.390625 
Q 40.53125 50.734375 40.625 51.703125 
Q 40.71875 52.6875 40.828125 52.828125 
L 49.171875 52.828125 
Q 49.125 52.390625 49.078125 51.34375 
Q 49.03125 50.296875 48.96875 48.828125 
Q 48.921875 47.359375 48.890625 45.578125 
Q 48.875 43.796875 48.875 41.890625 
L 48.875 1.515625 
Q 48.875 -9.578125 43.421875 -15.15625 
Q 37.984375 -20.75 26.765625 -20.75 
M 40.140625 26.421875 
Q 40.140625 31.9375 38.9375 35.859375 
Q 37.75 39.796875 35.796875 42.28125 
Q 33.84375 44.78125 31.328125 45.953125 
Q 28.8125 47.125 26.171875 47.125 
Q 22.796875 47.125 20.375 45.953125 
Q 17.96875 44.78125 16.375 42.265625 
Q 14.796875 39.75 14.03125 35.8125 
Q 13.28125 31.890625 13.28125 26.421875 
Q 13.28125 20.703125 14.03125 16.8125 
Q 14.796875 12.9375 16.359375 10.546875 
Q 17.921875 8.15625 20.3125 7.125 
Q 22.703125 6.109375 26.03125 6.109375 
Q 28.65625 6.109375 31.171875 7.21875 
Q 33.6875 8.34375 35.6875 10.78125 
Q 37.703125 13.234375 38.921875 17.09375 
Q 40.140625 20.953125 40.140625 26.421875 
" id="LiberationSans-67"/>
      <path d="M 20.21875 -0.984375 
Q 12.25 -0.984375 8.25 3.21875 
Q 4.25 7.421875 4.25 14.75 
Q 4.25 19.96875 6.21875 23.3125 
Q 8.203125 26.65625 11.390625 28.5625 
Q 14.59375 30.46875 18.6875 31.203125 
Q 22.796875 31.9375 27.046875 32.03125 
L 38.921875 32.234375 
L 38.921875 35.109375 
Q 38.921875 38.375 38.234375 40.671875 
Q 37.546875 42.96875 36.125 44.375 
Q 34.71875 45.796875 32.59375 46.453125 
Q 30.46875 47.125 27.59375 47.125 
Q 25.046875 47.125 23 46.75 
Q 20.953125 46.390625 19.4375 45.4375 
Q 17.921875 44.484375 16.984375 42.84375 
Q 16.0625 41.21875 15.765625 38.71875 
L 6.59375 39.546875 
Q 7.078125 42.671875 8.4375 45.28125 
Q 9.8125 47.90625 12.328125 49.796875 
Q 14.84375 51.703125 18.625 52.75 
Q 22.40625 53.8125 27.78125 53.8125 
Q 37.75 53.8125 42.765625 49.234375 
Q 47.796875 44.671875 47.796875 36.03125 
L 47.796875 13.28125 
Q 47.796875 9.375 48.828125 7.390625 
Q 49.859375 5.421875 52.734375 5.421875 
Q 53.46875 5.421875 54.203125 5.515625 
Q 54.9375 5.609375 55.609375 5.765625 
L 55.609375 0.296875 
Q 53.953125 -0.09375 52.3125 -0.28125 
Q 50.6875 -0.484375 48.828125 -0.484375 
Q 46.34375 -0.484375 44.5625 0.171875 
Q 42.78125 0.828125 41.65625 2.171875 
Q 40.53125 3.515625 39.9375 5.484375 
Q 39.359375 7.46875 39.203125 10.109375 
L 38.921875 10.109375 
Q 37.5 7.5625 35.8125 5.515625 
Q 34.125 3.46875 31.875 2.03125 
Q 29.640625 0.59375 26.78125 -0.1875 
Q 23.921875 -0.984375 20.21875 -0.984375 
M 22.21875 5.609375 
Q 26.421875 5.609375 29.5625 7.140625 
Q 32.71875 8.6875 34.78125 11.078125 
Q 36.859375 13.484375 37.890625 16.3125 
Q 38.921875 19.140625 38.921875 21.734375 
L 38.921875 26.078125 
L 29.296875 25.875 
Q 26.078125 25.828125 23.171875 25.40625 
Q 20.265625 25 18.0625 23.78125 
Q 15.875 22.5625 14.578125 20.359375 
Q 13.28125 18.171875 13.28125 14.59375 
Q 13.28125 10.296875 15.59375 7.953125 
Q 17.921875 5.609375 22.21875 5.609375 
" id="LiberationSans-61"/>
      <path d="M 27.046875 0.390625 
Q 25.046875 -0.140625 22.96875 -0.453125 
Q 20.90625 -0.78125 18.171875 -0.78125 
Q 7.625 -0.78125 7.625 11.1875 
L 7.625 46.4375 
L 1.515625 46.4375 
L 1.515625 52.828125 
L 7.953125 52.828125 
L 10.546875 64.65625 
L 16.40625 64.65625 
L 16.40625 52.828125 
L 26.171875 52.828125 
L 26.171875 46.4375 
L 16.40625 46.4375 
L 16.40625 13.09375 
Q 16.40625 9.28125 17.640625 7.734375 
Q 18.890625 6.203125 21.96875 6.203125 
Q 23.25 6.203125 24.4375 6.390625 
Q 25.640625 6.59375 27.046875 6.890625 
z
" id="LiberationSans-74"/>
      <path d="M 6.9375 0 
L 6.9375 40.53125 
Q 6.9375 42.1875 6.90625 43.921875 
Q 6.890625 45.65625 6.828125 47.265625 
Q 6.78125 48.875 6.734375 50.28125 
Q 6.6875 51.703125 6.640625 52.828125 
L 14.9375 52.828125 
Q 14.984375 51.703125 15.0625 50.265625 
Q 15.140625 48.828125 15.203125 47.3125 
Q 15.28125 45.796875 15.296875 44.40625 
Q 15.328125 43.015625 15.328125 42.046875 
L 15.53125 42.046875 
Q 16.453125 45.0625 17.5 47.28125 
Q 18.5625 49.515625 19.96875 50.953125 
Q 21.390625 52.390625 23.34375 53.09375 
Q 25.296875 53.8125 28.078125 53.8125 
Q 29.15625 53.8125 30.125 53.640625 
Q 31.109375 53.46875 31.640625 53.328125 
L 31.640625 45.265625 
Q 30.765625 45.515625 29.59375 45.625 
Q 28.421875 45.75 26.953125 45.75 
Q 23.921875 45.75 21.796875 44.375 
Q 19.671875 43.015625 18.328125 40.59375 
Q 17 38.1875 16.359375 34.84375 
Q 15.71875 31.5 15.71875 27.546875 
L 15.71875 0 
z
" id="LiberationSans-72"/>
      <path d="M 13.421875 26.65625 
Q 13.421875 22.125 14.078125 18.3125 
Q 14.75 14.5 16.3125 11.734375 
Q 17.875 8.984375 20.4375 7.46875 
Q 23 5.953125 26.765625 5.953125 
Q 31.453125 5.953125 34.59375 8.484375 
Q 37.75 11.03125 38.484375 16.3125 
L 47.359375 15.71875 
Q 46.921875 12.453125 45.453125 9.421875 
Q 44 6.390625 41.484375 4.09375 
Q 38.96875 1.8125 35.34375 0.40625 
Q 31.734375 -0.984375 27 -0.984375 
Q 20.796875 -0.984375 16.453125 1.109375 
Q 12.109375 3.21875 9.390625 6.90625 
Q 6.6875 10.59375 5.46875 15.59375 
Q 4.25 20.609375 4.25 26.46875 
Q 4.25 31.78125 5.125 35.859375 
Q 6 39.9375 7.59375 42.984375 
Q 9.1875 46.046875 11.328125 48.125 
Q 13.484375 50.203125 15.984375 51.4375 
Q 18.5 52.6875 21.28125 53.25 
Q 24.078125 53.8125 26.90625 53.8125 
Q 31.34375 53.8125 34.8125 52.59375 
Q 38.28125 51.375 40.796875 49.25 
Q 43.3125 47.125 44.875 44.234375 
Q 46.4375 41.359375 47.078125 38.03125 
L 38.03125 37.359375 
Q 37.359375 41.75 34.5625 44.328125 
Q 31.78125 46.921875 26.65625 46.921875 
Q 22.90625 46.921875 20.390625 45.671875 
Q 17.875 44.4375 16.3125 41.921875 
Q 14.75 39.40625 14.078125 35.59375 
Q 13.421875 31.78125 13.421875 26.65625 
" id="LiberationSans-63"/>
      <path d="M 6.6875 64.0625 
L 6.6875 72.46875 
L 15.484375 72.46875 
L 15.484375 64.0625 
z
M 6.6875 0 
L 6.6875 52.828125 
L 15.484375 52.828125 
L 15.484375 0 
z
" id="LiberationSans-69"/>
      <path d="M 0 -0.984375 
L 20.0625 72.46875 
L 27.78125 72.46875 
L 7.90625 -0.984375 
z
" id="LiberationSans-2f"/>
      <path d="M 39.109375 0 
L 24.90625 21.6875 
L 10.59375 0 
L 1.125 0 
L 19.921875 27.15625 
L 2 52.828125 
L 11.71875 52.828125 
L 24.90625 32.28125 
L 37.984375 52.828125 
L 47.796875 52.828125 
L 29.890625 27.25 
L 48.921875 0 
z
" id="LiberationSans-78"/>
      <path d="M 40.28125 0 
L 40.28125 33.5 
Q 40.28125 37.359375 39.71875 39.9375 
Q 39.15625 42.53125 37.890625 44.109375 
Q 36.625 45.703125 34.546875 46.359375 
Q 32.46875 47.015625 29.390625 47.015625 
Q 26.265625 47.015625 23.75 45.921875 
Q 21.234375 44.828125 19.453125 42.75 
Q 17.671875 40.671875 16.6875 37.625 
Q 15.71875 34.578125 15.71875 30.609375 
L 15.71875 0 
L 6.9375 0 
L 6.9375 41.546875 
Q 6.9375 43.21875 6.90625 45.046875 
Q 6.890625 46.875 6.828125 48.5 
Q 6.78125 50.140625 6.734375 51.3125 
Q 6.6875 52.484375 6.640625 52.828125 
L 14.9375 52.828125 
Q 14.984375 52.59375 15.03125 51.515625 
Q 15.09375 50.4375 15.15625 49.046875 
Q 15.234375 47.65625 15.28125 46.21875 
Q 15.328125 44.78125 15.328125 43.796875 
L 15.484375 43.796875 
Q 16.75 46.09375 18.265625 47.953125 
Q 19.78125 49.8125 21.78125 51.09375 
Q 23.78125 52.390625 26.359375 53.09375 
Q 28.953125 53.8125 32.375 53.8125 
Q 36.765625 53.8125 39.9375 52.734375 
Q 43.109375 51.65625 45.15625 49.40625 
Q 47.21875 47.171875 48.171875 43.625 
Q 49.125 40.09375 49.125 35.203125 
L 49.125 0 
z
" id="LiberationSans-6e"/>
      <path d="M 51.421875 26.46875 
Q 51.421875 12.59375 45.3125 5.796875 
Q 39.203125 -0.984375 27.59375 -0.984375 
Q 22.078125 -0.984375 17.71875 0.671875 
Q 13.375 2.34375 10.375 5.765625 
Q 7.375 9.1875 5.78125 14.328125 
Q 4.203125 19.484375 4.203125 26.46875 
Q 4.203125 53.8125 27.875 53.8125 
Q 34.03125 53.8125 38.5 52.09375 
Q 42.96875 50.390625 45.828125 46.96875 
Q 48.6875 43.5625 50.046875 38.421875 
Q 51.421875 33.296875 51.421875 26.46875 
M 42.1875 26.46875 
Q 42.1875 32.625 41.234375 36.625 
Q 40.28125 40.625 38.453125 43.015625 
Q 36.625 45.40625 33.984375 46.359375 
Q 31.34375 47.3125 28.03125 47.3125 
Q 24.65625 47.3125 21.9375 46.3125 
Q 19.234375 45.3125 17.328125 42.890625 
Q 15.4375 40.484375 14.421875 36.46875 
Q 13.421875 32.46875 13.421875 26.46875 
Q 13.421875 20.3125 14.5 16.28125 
Q 15.578125 12.25 17.453125 9.859375 
Q 19.34375 7.46875 21.90625 6.484375 
Q 24.46875 5.515625 27.484375 5.515625 
Q 30.859375 5.515625 33.59375 6.46875 
Q 36.328125 7.421875 38.234375 9.8125 
Q 40.140625 12.203125 41.15625 16.25 
Q 42.1875 20.3125 42.1875 26.46875 
" id="LiberationSans-6f"/>
      <path d="M 6.734375 0 
L 6.734375 72.46875 
L 15.53125 72.46875 
L 15.53125 0 
z
" id="LiberationSans-6c"/>
      <path id="LiberationSans-20"/>
      <path d="M 46.390625 14.59375 
Q 46.390625 10.890625 44.9375 7.984375 
Q 43.5 5.078125 40.765625 3.09375 
Q 38.03125 1.125 34.046875 0.0625 
Q 30.078125 -0.984375 24.953125 -0.984375 
Q 20.359375 -0.984375 16.671875 -0.265625 
Q 12.984375 0.4375 10.203125 2 
Q 7.421875 3.5625 5.53125 6.125 
Q 3.65625 8.6875 2.78125 12.40625 
L 10.546875 13.921875 
Q 11.671875 9.671875 15.1875 7.6875 
Q 18.703125 5.71875 24.953125 5.71875 
Q 27.78125 5.71875 30.140625 6.109375 
Q 32.515625 6.5 34.21875 7.453125 
Q 35.9375 8.40625 36.890625 9.984375 
Q 37.84375 11.578125 37.84375 13.921875 
Q 37.84375 16.3125 36.71875 17.84375 
Q 35.59375 19.390625 33.59375 20.40625 
Q 31.59375 21.4375 28.734375 22.1875 
Q 25.875 22.953125 22.46875 23.875 
Q 19.28125 24.703125 16.15625 25.734375 
Q 13.03125 26.765625 10.515625 28.4375 
Q 8.015625 30.125 6.453125 32.609375 
Q 4.890625 35.109375 4.890625 38.875 
Q 4.890625 46.09375 10.03125 49.875 
Q 15.1875 53.65625 25.046875 53.65625 
Q 33.796875 53.65625 38.9375 50.578125 
Q 44.09375 47.515625 45.453125 40.71875 
L 37.546875 39.75 
Q 37.109375 41.796875 35.9375 43.1875 
Q 34.765625 44.578125 33.109375 45.4375 
Q 31.453125 46.296875 29.375 46.65625 
Q 27.296875 47.015625 25.046875 47.015625 
Q 19.09375 47.015625 16.25 45.203125 
Q 13.421875 43.40625 13.421875 39.75 
Q 13.421875 37.59375 14.46875 36.203125 
Q 15.53125 34.8125 17.40625 33.859375 
Q 19.28125 32.90625 21.921875 32.203125 
Q 24.5625 31.5 27.734375 30.71875 
Q 29.828125 30.171875 32.03125 29.5625 
Q 34.234375 28.953125 36.296875 28.09375 
Q 38.375 27.25 40.203125 26.09375 
Q 42.046875 24.953125 43.40625 23.34375 
Q 44.78125 21.734375 45.578125 19.578125 
Q 46.390625 17.4375 46.390625 14.59375 
" id="LiberationSans-73"/>
     </defs>
     <g style="fill:#262626;" transform="translate(182.6915 522.7588125)rotate(-90.0)scale(0.088 -0.088)">
      <use xlink:href="#LiberationSans-61"/>
      <use x="55.615234375" xlink:href="#LiberationSans-6e"/>
      <use x="111.23046875" xlink:href="#LiberationSans-67"/>
      <use x="166.845703125" xlink:href="#LiberationSans-6c"/>
      <use x="189.0625" xlink:href="#LiberationSans-65"/>
      <use x="244.677734375" xlink:href="#LiberationSans-2f"/>
      <use x="272.4609375" xlink:href="#LiberationSans-64"/>
      <use x="328.076171875" xlink:href="#LiberationSans-69"/>
      <use x="350.29296875" xlink:href="#LiberationSans-73"/>
      <use x="400.29296875" xlink:href="#LiberationSans-74"/>
      <use x="428.076171875" xlink:href="#LiberationSans-61"/>
      <use x="483.69140625" xlink:href="#LiberationSans-6e"/>
      <use x="539.306640625" xlink:href="#LiberationSans-63"/>
      <use x="589.306640625" xlink:href="#LiberationSans-65"/>
      <use x="644.921875" xlink:href="#LiberationSans-20"/>
      <use x="672.705078125" xlink:href="#LiberationSans-78"/>
      <use x="722.705078125" xlink:href="#LiberationSans-31"/>
      <use x="778.3203125" xlink:href="#LiberationSans-30"/>
      <use x="833.935546875" xlink:href="#LiberationSans-2f"/>
      <use x="861.71875" xlink:href="#LiberationSans-64"/>
      <use x="917.333984375" xlink:href="#LiberationSans-69"/>
      <use x="939.55078125" xlink:href="#LiberationSans-72"/>
      <use x="972.8515625" xlink:href="#LiberationSans-65"/>
      <use x="1028.46679688" xlink:href="#LiberationSans-63"/>
      <use x="1078.46679688" xlink:href="#LiberationSans-74"/>
      <use x="1106.25" xlink:href="#LiberationSans-69"/>
      <use x="1128.46679688" xlink:href="#LiberationSans-6f"/>
      <use x="1184.08203125" xlink:href="#LiberationSans-6e"/>
      <use x="1239.69726562" xlink:href="#LiberationSans-20"/>
      <use x="1267.48046875" xlink:href="#LiberationSans-78"/>
      <use x="1317.48046875" xlink:href="#LiberationSans-31"/>
      <use x="1373.09570312" xlink:href="#LiberationSans-30"/>
     </g>
    </g>
   </g>
   <g id="line2d_31">
    <path clip-path="url(#pf42c8254c2)" d="M 207.08115 467.71599 
L 209.853839 424.510763 
L 212.626529 352.526918 
L 215.399218 340.067899 
L 218.171908 300.197709 
L 220.944597 379.402836 
L 223.717287 364.562041 
L 226.489976 435.162508 
L 229.262666 479.619519 
L 232.035355 558.914127 
L 234.808045 591.752934 
L 237.580734 515.836329 
L 240.353424 494.034895 
L 243.126113 431.067465 
L 245.898803 400.956522 
L 248.671492 343.910057 
L 251.444182 324.565111 
L 254.216871 347.006523 
L 256.989561 376.448415 
L 259.76225 424.225606 
L 262.53494 443.74812 
L 265.307629 532.143398 
L 268.080319 570.904889 
L 270.853008 561.8672 
L 273.625698 499.054845 
L 276.398387 492.793245 
L 279.171077 443.560251 
L 281.943766 361.690155 
L 284.716456 343.116223 
L 287.489145 307.243566 
L 290.261835 383.304132 
L 293.034524 374.627292 
L 295.807214 442.760731 
L 298.579904 480.29538 
L 301.352593 555.010251 
L 304.125283 573.870784 
L 306.897972 500.526038 
L 309.670662 496.926301 
L 312.443351 447.149517 
L 315.216041 416.290433 
L 317.98873 333.700367 
L 320.76142 321.165028 
L 323.534109 347.637593 
L 326.306799 368.11617 
L 329.079488 439.456301 
L 331.852178 445.806132 
L 334.624867 524.095772 
L 337.397557 563.637462 
L 340.170246 566.330361 
L 342.942936 507.799452 
L 345.715625 490.194301 
L 348.488315 449.119559 
L 351.261004 366.070145 
L 354.033694 346.18507 
L 356.806383 298.159444 
L 359.579073 367.551109 
L 362.351762 350.336366 
L 365.124452 422.595636 
L 367.897141 471.135608 
L 370.669831 561.092355 
L 373.44252 594.261607 
L 376.21521 525.755787 
L 378.987899 515.882991 
L 381.760589 468.776436 
L 384.533278 437.784854 
L 387.305968 354.865692 
L 390.078657 351.015628 
L 392.851347 381.282281 
L 395.624036 396.546318 
L 398.396726 460.422514 
L 401.169415 478.931582 
L 403.942105 553.084193 
L 406.714794 578.855232 
L 409.487484 577.260058 
L 412.260174 509.419993 
L 415.032863 491.302202 
L 417.805553 451.719001 
L 420.578242 373.234786 
L 423.350932 353.741599 
L 426.123621 320.805948 
L 428.896311 395.042968 
L 431.669 391.798725 
L 434.44169 449.581636 
L 437.214379 501.565105 
L 439.987069 575.565548 
L 442.759758 595.390225 
L 445.532448 519.347426 
L 448.305137 516.512366 
L 451.077827 456.235694 
L 453.850516 425.027887 
L 456.623206 343.91165 
L 459.395895 346.132597 
L 462.168585 358.241586 
L 464.941274 381.139747 
L 467.713964 440.812797 
L 470.486653 463.998939 
L 473.259343 551.048752 
L 476.032032 573.951023 
L 478.804722 591.464251 
L 481.577411 531.866952 
L 484.350101 520.490973 
L 487.12279 474.66019 
L 489.89548 387.254993 
L 492.668169 358.372763 
L 495.440859 318.867781 
L 498.213548 391.19758 
L 500.986238 392.820315 
L 503.758927 466.941294 
L 506.531617 514.793457 
L 509.304306 580.254609 
L 512.076996 600.775563 
L 514.849685 537.165791 
L 517.622375 538.77155 
L 520.395064 477.062051 
L 523.167754 449.737065 
L 525.940443 350.295396 
L 528.713133 331.461544 
L 531.485823 362.989179 
L 534.258512 385.204413 
L 537.031202 455.193464 
L 539.803891 472.794649 
L 542.576581 552.795666 
L 545.34927 572.739059 
L 548.12196 582.540802 
L 550.894649 513.653404 
L 553.667339 511.757511 
L 556.440028 477.45477 
L 559.212718 389.870375 
L 561.985407 373.689478 
L 564.758097 334.840693 
L 567.530786 397.771036 
L 570.303476 383.740518 
L 573.076165 451.223812 
L 575.848855 496.317465 
L 578.621544 572.291452 
L 581.394234 591.9264 
L 584.166923 522.740292 
L 586.939613 518.972225 
L 589.712302 466.609695 
L 592.484992 430.694754 
L 595.257681 363.774325 
L 598.030371 356.018939 
L 600.80306 377.212577 
L 603.57575 391.974409 
L 606.348439 412.496932 
L 609.121129 353.428346 
L 611.893818 371.54312 
L 614.666508 333.045342 
L 617.439197 369.40379 
L 620.211887 328.484693 
L 622.984576 297.983056 
L 634.075334 297.983056 
L 636.848024 338.823507 
L 639.620713 329.916839 
L 642.393403 404.268015 
L 645.166092 445.684374 
L 647.938782 533.439862 
L 650.711471 555.613741 
L 653.484161 498.401758 
L 656.256851 499.946072 
L 659.02954 439.808801 
L 661.80223 412.397259 
L 664.574919 328.219378 
L 667.347609 319.492489 
L 670.120298 336.231508 
L 672.892988 365.635098 
L 675.665677 434.051148 
L 678.438367 460.270974 
L 681.211056 548.976388 
L 683.983746 580.149057 
L 686.756435 585.427964 
L 689.529125 513.609864 
L 692.301814 500.163564 
L 695.074504 453.922795 
L 697.847193 371.215344 
L 700.619883 337.700597 
L 703.392572 308.816545 
L 706.165262 382.521908 
L 708.937951 385.361753 
L 711.710641 465.70724 
L 714.48333 522.963621 
L 717.25602 590.822724 
L 720.028709 602.83529 
L 722.801399 544.423391 
L 725.574088 531.865061 
L 728.346778 477.323572 
L 731.119467 447.549974 
L 733.892157 351.297616 
L 736.664846 346.862397 
L 739.437536 383.009741 
L 742.210225 403.568146 
L 744.982915 462.224593 
L 747.755604 485.401676 
L 750.528294 569.277296 
L 753.300983 581.220374 
L 756.073673 595.671969 
L 758.846362 518.118721 
L 761.619052 505.936422 
L 764.391741 470.556139 
L 767.164431 388.283429 
L 769.93712 359.957187 
L 772.70981 328.670287 
L 775.4825 394.924702 
L 778.255189 391.363873 
L 781.027879 467.346155 
L 783.800568 519.381276 
L 786.573258 584.627797 
L 789.345947 598.929977 
L 792.118637 530.885647 
L 794.891326 524.88857 
L 797.664016 470.122718 
L 800.436705 450.863375 
L 803.209395 364.734295 
L 805.982084 353.161526 
L 808.754774 380.980937 
L 811.527463 403.413631 
L 814.300153 463.407783 
L 817.072842 481.42013 
L 819.845532 557.213909 
L 822.618221 575.100575 
L 825.390911 580.343702 
L 828.1636 520.181082 
L 830.93629 513.256609 
L 833.708979 472.613705 
L 836.481669 382.291137 
L 839.254358 359.686438 
L 842.027048 327.459017 
L 844.799737 396.312516 
L 847.572427 403.880637 
L 850.345116 468.024247 
L 853.117806 523.779777 
L 855.890495 582.476103 
L 858.663185 588.575721 
L 861.435874 523.148873 
L 864.208564 521.16377 
L 866.981253 454.611021 
L 869.753943 434.769669 
L 872.526632 349.827657 
L 875.299322 343.293197 
L 878.072011 369.172349 
L 880.844701 403.608476 
L 883.61739 456.340168 
L 886.39008 462.867953 
L 889.162769 548.270239 
L 891.935459 576.043774 
L 894.708148 579.29068 
L 897.480838 513.29517 
L 900.253528 495.673573 
L 903.026217 455.473173 
L 905.798907 386.518992 
L 908.571596 374.145382 
L 911.344286 342.908492 
L 914.116975 412.766825 
L 916.889665 416.061748 
L 919.662354 479.890057 
L 922.435044 536.586911 
L 925.207733 595.690215 
L 927.980423 612.607714 
L 930.753112 538.430145 
L 933.525802 522.441542 
L 936.298491 466.621895 
L 939.071181 442.791027 
L 941.84387 378.569029 
L 944.61656 381.458376 
L 947.389249 413.608739 
L 950.161939 432.222199 
L 952.934628 507.031224 
L 955.707318 515.890072 
L 958.480007 596.820094 
L 961.252697 614.429228 
L 964.025386 621.390809 
L 966.798076 542.28168 
L 969.570765 531.198699 
L 972.343455 495.711864 
L 975.116144 422.518386 
L 977.888834 396.105181 
L 980.661523 364.73969 
L 983.434213 428.189104 
L 986.206902 432.463741 
L 988.979592 495.132898 
L 991.752281 551.479939 
L 994.524971 610.926036 
L 997.29766 619.416031 
L 1000.07035 560.530245 
L 1002.843039 554.714766 
L 1005.615729 488.648822 
L 1008.388418 455.269972 
L 1011.161108 360.528054 
L 1013.933797 357.824678 
L 1016.706487 382.818219 
L 1019.479177 405.275508 
L 1022.251866 479.363411 
L 1025.024556 503.274143 
L 1027.797245 587.683411 
L 1030.569935 608.009007 
L 1033.342624 618.135028 
L 1036.115314 554.790411 
L 1038.888003 544.309972 
L 1041.660693 497.28048 
L 1044.433382 416.03299 
L 1047.206072 386.927246 
L 1049.978761 347.727996 
L 1052.751451 420.961499 
L 1055.52414 421.840189 
L 1058.29683 493.81515 
L 1061.069519 549.193296 
L 1063.842209 610.210818 
L 1066.614898 616.960613 
L 1069.387588 550.389447 
L 1072.160277 541.409288 
L 1074.932967 477.076322 
L 1077.705656 444.697535 
L 1080.478346 372.796474 
L 1083.251035 366.294774 
L 1086.023725 393.471 
L 1088.796414 422.530845 
L 1091.569104 503.631855 
L 1094.341793 522.223036 
L 1097.114483 605.90529 
L 1099.887172 606.348616 
L 1102.659862 613.248802 
L 1105.432551 540.829 
L 1108.205241 530.364418 
L 1110.97793 488.300241 
L 1113.75062 420.130807 
L 1116.523309 395.951067 
L 1119.295999 350.526945 
L 1122.068688 426.90224 
L 1124.841378 437.434651 
L 1127.614067 502.363367 
L 1133.159446 615.202763 
L 1135.932136 614.097728 
L 1138.704825 537.182386 
L 1141.477515 545.096681 
L 1144.250205 486.758358 
L 1147.022894 461.609025 
L 1149.795584 382.697221 
L 1152.568273 378.366273 
L 1155.340963 416.187701 
L 1158.113652 428.618185 
L 1160.886342 510.909655 
L 1163.659031 521.27004 
L 1166.431721 594.750456 
L 1169.20441 602.316036 
L 1171.9771 609.470845 
L 1174.749789 539.330767 
L 1177.522479 528.129373 
L 1180.295168 483.922564 
L 1183.067858 412.433342 
L 1185.840547 393.500956 
L 1188.613237 356.813437 
L 1191.385926 437.209504 
L 1194.158616 440.924535 
L 1196.931305 504.881402 
L 1199.703995 562.795221 
L 1202.476684 610.396149 
L 1205.249374 608.250358 
L 1208.022063 560.359135 
L 1210.794753 553.78263 
L 1213.567442 492.876603 
L 1216.340132 472.867217 
L 1219.112821 375.837184 
L 1221.885511 359.541275 
L 1224.6582 391.499736 
L 1227.43089 413.438381 
L 1230.203579 490.190451 
L 1232.976269 500.497761 
L 1235.748958 582.200047 
L 1238.521648 602.087439 
L 1241.294337 612.552935 
L 1244.067027 539.080708 
L 1246.839716 542.461992 
L 1249.612406 491.085262 
L 1252.385095 418.777399 
L 1255.157785 381.700978 
L 1257.930474 336.914425 
L 1260.703164 412.732824 
L 1263.475854 425.06708 
L 1266.248543 488.322086 
L 1269.021233 547.111803 
L 1271.793922 597.990434 
L 1274.566612 614.671908 
L 1277.339301 551.006903 
L 1280.111991 537.96072 
L 1282.88468 473.24123 
L 1285.65737 441.693704 
L 1288.430059 369.287048 
L 1291.202749 367.334299 
L 1293.975438 408.38835 
L 1296.748128 426.206864 
L 1299.520817 496.967403 
L 1302.293507 515.065178 
L 1305.066196 581.133627 
L 1307.838886 588.533501 
L 1310.611575 594.106368 
L 1313.384265 519.272568 
L 1316.156954 497.122602 
L 1318.929644 464.206831 
L 1321.702333 399.953755 
L 1324.475023 417.316964 
L 1327.247712 371.425802 
L 1330.020402 439.206411 
L 1332.793091 450.736967 
L 1335.565781 513.679323 
L 1338.33847 561.71675 
L 1341.11116 613.521681 
L 1343.883849 616.365108 
L 1346.656539 553.574576 
L 1349.429228 546.197191 
L 1352.201918 487.087881 
L 1354.974607 445.731014 
L 1357.747297 375.629228 
L 1360.519986 380.710627 
L 1363.292676 405.765115 
L 1366.065365 422.092061 
L 1368.838055 494.082339 
L 1371.610744 515.294454 
L 1374.383434 585.366393 
L 1377.156123 587.893732 
L 1379.928813 596.176572 
L 1382.701502 533.254375 
L 1385.474192 510.310124 
L 1388.246882 469.354329 
L 1391.019571 405.622806 
L 1393.792261 400.990186 
L 1396.56495 374.04976 
L 1399.33764 444.001419 
L 1402.110329 454.438654 
L 1404.883019 517.333927 
L 1407.655708 570.074883 
L 1410.428398 599.212396 
L 1413.201087 605.594276 
L 1415.973777 536.421527 
L 1418.746466 528.740926 
L 1421.519156 483.900286 
L 1424.291845 455.087081 
L 1427.064535 395.067089 
L 1429.837224 385.083474 
L 1432.609914 413.809248 
L 1435.382603 433.689138 
L 1438.155293 506.823816 
L 1440.927982 531.629857 
L 1443.700672 594.554864 
L 1446.473361 608.611539 
L 1449.246051 609.963037 
L 1452.01874 537.177055 
L 1454.79143 512.70352 
L 1457.564119 470.703828 
L 1460.336809 404.553297 
L 1463.109498 412.755308 
L 1465.882188 374.741307 
L 1468.654877 450.458267 
L 1471.427567 455.375905 
L 1474.200256 520.043762 
L 1476.972946 570.818806 
L 1479.745635 604.385908 
L 1482.518325 602.302598 
L 1485.291014 548.937197 
L 1488.063704 539.222039 
L 1488.063704 539.222039 
" style="fill:none;stroke:#003fff;stroke-linecap:round;stroke-width:1.4;"/>
   </g>
   <g id="line2d_32">
    <path clip-path="url(#pf42c8254c2)" d="M 207.08115 330.638247 
L 209.853839 401.553634 
L 212.626529 462.072983 
L 215.399218 487.398631 
L 218.171908 548.648776 
L 220.944597 595.073329 
L 223.717287 667.180034 
L 226.489976 605.509533 
L 229.262666 552.69957 
L 232.035355 463.575641 
L 234.808045 435.260264 
L 237.580734 410.209399 
L 240.353424 339.522063 
L 243.126113 358.182037 
L 245.898803 418.936502 
L 248.671492 483.069353 
L 251.444182 502.634503 
L 254.216871 571.352911 
L 256.989561 631.730236 
L 259.76225 632.866514 
L 262.53494 574.690105 
L 265.307629 499.994278 
L 268.080319 467.3748 
L 270.853008 405.946938 
L 273.625698 383.999844 
L 276.398387 313.988297 
L 281.943766 452.213432 
L 284.716456 484.814825 
L 287.489145 541.877507 
L 290.261835 588.828628 
L 293.034524 659.135063 
L 295.807214 589.892253 
L 298.579904 542.537743 
L 301.352593 453.91651 
L 304.125283 444.070288 
L 306.897972 414.732527 
L 309.670662 332.206174 
L 312.443351 338.356718 
L 315.216041 400.965897 
L 317.98873 486.29936 
L 320.76142 501.246367 
L 323.534109 563.407896 
L 326.306799 636.366997 
L 329.079488 614.000528 
L 331.852178 566.780924 
L 334.624867 498.533626 
L 337.397557 467.314992 
L 340.170246 406.891437 
L 342.942936 363.954402 
L 345.715625 314.077283 
L 348.488315 369.271236 
L 351.261004 444.232293 
L 354.033694 473.983948 
L 356.806383 539.732547 
L 359.579073 596.655158 
L 362.351762 676.272672 
L 367.897141 565.342047 
L 370.669831 463.694863 
L 373.44252 440.551141 
L 376.21521 406.022749 
L 378.987899 330.32673 
L 381.760589 339.824748 
L 384.533278 407.138345 
L 387.305968 488.132703 
L 390.078657 495.960701 
L 392.851347 545.79132 
L 395.624036 620.591477 
L 398.396726 602.94943 
L 403.942105 489.570964 
L 406.714794 464.341015 
L 409.487484 392.168765 
L 412.260174 368.398001 
L 415.032863 318.621903 
L 417.805553 385.208172 
L 420.578242 456.076572 
L 423.350932 483.768111 
L 426.123621 541.536454 
L 428.896311 585.680717 
L 431.669 651.09287 
L 434.44169 593.306381 
L 437.214379 541.26808 
L 439.987069 449.334861 
L 442.759758 433.908793 
L 445.532448 410.380021 
L 448.305137 323.486228 
L 451.077827 341.303846 
L 453.850516 412.417251 
L 456.623206 492.227923 
L 459.395895 497.611361 
L 464.941274 641.364119 
L 467.713964 628.437429 
L 470.486653 572.933394 
L 473.259343 503.990543 
L 476.032032 476.332266 
L 478.804722 396.159469 
L 481.577411 359.748284 
L 484.350101 299.367261 
L 487.12279 370.207339 
L 489.89548 448.755744 
L 492.668169 485.88177 
L 495.440859 541.682768 
L 498.213548 592.049721 
L 500.986238 653.964468 
L 503.758927 584.771449 
L 506.531617 529.842774 
L 509.304306 452.102482 
L 512.076996 438.662096 
L 514.849685 396.007449 
L 517.622375 311.216798 
L 520.395064 324.371016 
L 523.167754 388.131513 
L 525.940443 483.685296 
L 528.713133 503.840776 
L 531.485823 560.575883 
L 534.258512 629.984195 
L 537.031202 609.003711 
L 539.803891 556.768864 
L 542.576581 494.932934 
L 545.34927 475.045191 
L 548.12196 396.976722 
L 550.894649 370.40729 
L 553.667339 305.843768 
L 556.440028 367.962853 
L 559.212718 446.009316 
L 561.985407 473.255199 
L 567.530786 581.326572 
L 570.303476 657.526399 
L 573.076165 592.970268 
L 575.848855 545.810978 
L 578.621544 456.705134 
L 581.394234 441.951708 
L 584.166923 410.636317 
L 586.939613 327.677952 
L 589.712302 338.648465 
L 595.257681 479.836941 
L 598.030371 489.693326 
L 600.80306 549.748121 
L 603.57575 629.259131 
L 606.348439 424.888433 
L 609.121129 419.122009 
L 611.893818 415.635641 
L 614.666508 457.888965 
L 617.439197 435.348808 
L 620.211887 384.6126 
L 622.984576 381.649176 
L 625.757266 425.934504 
L 628.529955 423.432593 
L 631.302645 448.721275 
L 634.075334 472.450061 
L 639.620713 636.941649 
L 645.166092 543.494272 
L 647.938782 451.913478 
L 650.711471 434.906812 
L 653.484161 391.842894 
L 656.256851 307.29548 
L 659.02954 329.498727 
L 661.80223 394.668092 
L 664.574919 477.553909 
L 667.347609 487.890901 
L 672.892988 629.355774 
L 675.665677 619.893548 
L 678.438367 564.689321 
L 681.211056 491.508985 
L 683.983746 463.551442 
L 686.756435 388.042363 
L 689.529125 358.836086 
L 692.301814 305.138894 
L 695.074504 378.35569 
L 697.847193 448.25917 
L 700.619883 498.997916 
L 703.392572 545.813294 
L 706.165262 595.495143 
L 708.937951 660.251487 
L 711.710641 584.400472 
L 714.48333 529.824113 
L 717.25602 447.154204 
L 720.028709 433.660797 
L 722.801399 387.106339 
L 725.574088 310.461203 
L 728.346778 322.364618 
L 731.119467 387.130855 
L 733.892157 479.873145 
L 736.664846 488.265652 
L 739.437536 536.480067 
L 742.210225 610.701763 
L 744.982915 601.364229 
L 750.528294 483.944682 
L 753.300983 463.55583 
L 756.073673 382.956425 
L 758.846362 357.288369 
L 761.619052 300.269928 
L 767.164431 439.490255 
L 772.70981 531.058446 
L 775.4825 581.062378 
L 778.255189 651.988041 
L 781.027879 581.427269 
L 783.800568 530.651026 
L 786.573258 449.910161 
L 789.345947 436.84297 
L 792.118637 397.23828 
L 794.891326 316.733933 
L 797.664016 330.067196 
L 800.436705 387.534076 
L 803.209395 468.721955 
L 805.982084 480.228273 
L 808.754774 535.489944 
L 811.527463 607.656206 
L 814.300153 597.24645 
L 819.845532 483.947352 
L 822.618221 460.567882 
L 825.390911 383.895319 
L 828.1636 350.861885 
L 830.93629 289.23707 
L 833.708979 358.520923 
L 836.481669 436.567402 
L 839.254358 471.796684 
L 842.027048 524.25821 
L 844.799737 569.951797 
L 847.572427 633.938167 
L 850.345116 566.967696 
L 853.117806 514.907322 
L 855.890495 438.101673 
L 858.663185 431.31315 
L 861.435874 390.433311 
L 864.208564 306.868888 
L 866.981253 333.960253 
L 869.753943 392.364102 
L 872.526632 475.628781 
L 875.299322 484.399762 
L 878.072011 543.792532 
L 880.844701 607.006655 
L 883.61739 599.039683 
L 886.39008 555.276442 
L 889.162769 487.204378 
L 891.935459 458.44371 
L 894.708148 385.830615 
L 897.480838 355.44511 
L 900.253528 312.340285 
L 903.026217 388.671322 
L 905.798907 448.857282 
L 908.571596 476.932159 
L 914.116975 568.784862 
L 916.889665 633.61863 
L 919.662354 579.854923 
L 922.435044 521.59194 
L 925.207733 447.661706 
L 927.980423 432.734791 
L 930.753112 399.188655 
L 933.525802 335.951227 
L 936.298491 355.129435 
L 939.071181 423.251087 
L 941.84387 483.595429 
L 944.61656 485.917221 
L 947.389249 529.402659 
L 950.161939 606.470179 
L 952.934628 582.471974 
L 955.707318 546.176351 
L 958.480007 484.015599 
L 961.252697 460.881669 
L 964.025386 383.55555 
L 966.798076 352.544323 
L 969.570765 298.79728 
L 972.343455 368.045338 
L 975.116144 434.357426 
L 977.888834 473.739935 
L 983.434213 559.153404 
L 986.206902 623.755403 
L 991.752281 512.615556 
L 994.524971 439.554144 
L 997.29766 428.009088 
L 1000.07035 372.276657 
L 1002.843039 297.458537 
L 1005.615729 316.241429 
L 1008.388418 390.521099 
L 1011.161108 481.857273 
L 1013.933797 486.800888 
L 1016.706487 545.181386 
L 1019.479177 618.263893 
L 1022.251866 606.416384 
L 1025.024556 555.571648 
L 1027.797245 490.632483 
L 1030.569935 465.85737 
L 1033.342624 385.904215 
L 1036.115314 340.292698 
L 1038.888003 280.264905 
L 1041.660693 356.223978 
L 1044.433382 428.480632 
L 1047.206072 469.579449 
L 1049.978761 516.056905 
L 1052.751451 558.737297 
L 1055.52414 627.723585 
L 1058.29683 563.758091 
L 1061.069519 509.126368 
L 1063.842209 435.104167 
L 1066.614898 423.356419 
L 1069.387588 386.66103 
L 1072.160277 310.662622 
L 1074.932967 338.781024 
L 1077.705656 412.945469 
L 1080.478346 481.150414 
L 1083.251035 488.886662 
L 1086.023725 539.570274 
L 1088.796414 604.579831 
L 1091.569104 583.852768 
L 1094.341793 534.113897 
L 1097.114483 471.112512 
L 1099.887172 459.178399 
L 1102.659862 383.689736 
L 1105.432551 349.082582 
L 1108.205241 290.031604 
L 1110.97793 369.037741 
L 1113.75062 429.421203 
L 1116.523309 468.031786 
L 1119.295999 518.306575 
L 1122.068688 554.187497 
L 1124.841378 616.050483 
L 1130.386757 502.788572 
L 1133.159446 431.481143 
L 1135.932136 423.932524 
L 1138.704825 394.935062 
L 1141.477515 308.127693 
L 1144.250205 330.745286 
L 1147.022894 397.954412 
L 1149.795584 476.105604 
L 1152.568273 478.417088 
L 1155.340963 515.595009 
L 1158.113652 593.809522 
L 1160.886342 572.288167 
L 1163.659031 532.188809 
L 1166.431721 475.819664 
L 1169.20441 457.572576 
L 1171.9771 382.320664 
L 1174.749789 350.559644 
L 1177.522479 298.665268 
L 1180.295168 378.982621 
L 1183.067858 441.695377 
L 1185.840547 474.814392 
L 1188.613237 513.682367 
L 1191.385926 544.820147 
L 1194.158616 613.345446 
L 1196.931305 558.450067 
L 1199.703995 492.357989 
L 1202.476684 430.000169 
L 1205.249374 427.326228 
L 1208.022063 369.843973 
L 1210.794753 290.157561 
L 1213.567442 312.865281 
L 1216.340132 377.591292 
L 1219.112821 468.073011 
L 1221.885511 482.594826 
L 1224.6582 527.969803 
L 1227.43089 600.014789 
L 1230.203579 584.557374 
L 1232.976269 541.440561 
L 1235.748958 477.934934 
L 1238.521648 454.182398 
L 1241.294337 377.244079 
L 1244.067027 345.788022 
L 1246.839716 279.183491 
L 1249.612406 361.73762 
L 1252.385095 429.952122 
L 1257.930474 520.587194 
L 1260.703164 555.394068 
L 1263.475854 618.219456 
L 1266.248543 565.077362 
L 1269.021233 502.672964 
L 1271.793922 437.534333 
L 1274.566612 418.889661 
L 1277.339301 379.67772 
L 1280.111991 312.114161 
L 1282.88468 342.873652 
L 1288.430059 484.425518 
L 1291.202749 482.249954 
L 1293.975438 513.149805 
L 1296.748128 584.604367 
L 1299.520817 575.276017 
L 1302.293507 529.632972 
L 1305.066196 474.956661 
L 1307.838886 461.325867 
L 1310.611575 389.70098 
L 1313.384265 367.425202 
L 1316.156954 332.856329 
L 1318.929644 411.928169 
L 1321.702333 467.474221 
L 1324.475023 470.444748 
L 1327.247712 512.468242 
L 1330.020402 545.023217 
L 1332.793091 607.206252 
L 1335.565781 554.811596 
L 1338.33847 497.641996 
L 1341.11116 433.3315 
L 1343.883849 428.289548 
L 1346.656539 386.638902 
L 1349.429228 314.337699 
L 1352.201918 339.804555 
L 1354.974607 419.432954 
L 1357.747297 490.312904 
L 1360.519986 474.628372 
L 1363.292676 520.021039 
L 1366.065365 591.808167 
L 1368.838055 580.086273 
L 1371.610744 529.486202 
L 1374.383434 474.249073 
L 1377.156123 460.822918 
L 1379.928813 394.681859 
L 1382.701502 354.739847 
L 1385.474192 319.877398 
L 1388.246882 403.529543 
L 1391.019571 462.266689 
L 1393.792261 485.197096 
L 1396.56495 502.891871 
L 1399.33764 538.588417 
L 1402.110329 597.309808 
L 1404.883019 541.737576 
L 1407.655708 478.080421 
L 1410.428398 432.872258 
L 1413.201087 424.295603 
L 1415.973777 400.353709 
L 1418.746466 326.6265 
L 1421.519156 350.198198 
L 1424.291845 419.779973 
L 1427.064535 482.539596 
L 1429.837224 484.109942 
L 1432.609914 523.056699 
L 1435.382603 595.279126 
L 1438.155293 578.993874 
L 1443.700672 470.68052 
L 1446.473361 451.411986 
L 1449.246051 388.091056 
L 1452.01874 364.194629 
L 1454.79143 328.74889 
L 1457.564119 413.074479 
L 1460.336809 467.491906 
L 1463.109498 483.197543 
L 1465.882188 515.452614 
L 1468.654877 539.347716 
L 1471.427567 602.905041 
L 1474.200256 545.379128 
L 1476.972946 483.790177 
L 1479.745635 432.394412 
L 1482.518325 429.675478 
L 1485.291014 397.07536 
L 1488.063704 325.876035 
L 1488.063704 325.876035 
" style="fill:none;stroke:#03ed3a;stroke-linecap:round;stroke-width:1.4;"/>
   </g>
   <g id="line2d_33">
    <path clip-path="url(#pf42c8254c2)" d="M 207.08115 467.71599 
L 209.853839 424.510763 
L 212.626529 352.526918 
L 215.399218 340.067899 
L 218.171908 300.197709 
L 220.944597 379.402836 
L 223.717287 364.562041 
L 226.489976 435.162508 
L 229.262666 479.619519 
L 232.035355 558.914127 
L 234.808045 591.752934 
L 237.580734 515.836329 
L 240.353424 494.034895 
L 243.126113 431.067465 
L 245.898803 400.956522 
L 248.671492 343.910057 
L 251.444182 324.565111 
L 254.216871 347.006523 
L 256.989561 376.448415 
L 259.76225 424.225606 
L 262.53494 443.74812 
L 265.307629 532.143398 
L 268.080319 570.904889 
L 270.853008 561.8672 
L 273.625698 499.054845 
L 276.398387 492.793245 
L 279.171077 443.560251 
L 281.943766 361.690155 
L 284.716456 343.116223 
L 287.489145 307.243566 
L 290.261835 383.304132 
L 293.034524 374.627292 
L 295.807214 442.760731 
L 298.579904 480.29538 
L 301.352593 555.010251 
L 304.125283 573.870784 
L 306.897972 500.526038 
L 309.670662 496.926301 
L 312.443351 447.149517 
L 315.216041 416.290433 
L 317.98873 333.700367 
L 320.76142 321.165028 
L 323.534109 347.637593 
L 326.306799 368.11617 
L 329.079488 439.456301 
L 331.852178 445.806132 
L 334.624867 524.095772 
L 337.397557 563.637462 
L 340.170246 566.330361 
L 342.942936 507.799452 
L 345.715625 490.194301 
L 348.488315 449.119559 
L 351.261004 366.070145 
L 354.033694 346.18507 
L 356.806383 298.159444 
L 359.579073 367.551109 
L 362.351762 350.336366 
L 365.124452 422.595636 
L 367.897141 471.135608 
L 370.669831 561.092355 
L 373.44252 594.261607 
L 376.21521 525.755787 
L 378.987899 515.882991 
L 381.760589 468.776436 
L 384.533278 437.784854 
L 387.305968 354.865692 
L 390.078657 351.015628 
L 392.851347 381.282281 
L 395.624036 396.546318 
L 398.396726 460.422514 
L 401.169415 478.931582 
L 403.942105 553.084193 
L 406.714794 578.855232 
L 409.487484 577.260058 
L 412.260174 509.419993 
L 415.032863 491.302202 
L 417.805553 451.719001 
L 420.578242 373.234786 
L 423.350932 353.741599 
L 426.123621 320.805948 
L 428.896311 395.042968 
L 431.669 391.798725 
L 434.44169 449.581636 
L 437.214379 501.565105 
L 439.987069 575.565548 
L 442.759758 595.390225 
L 445.532448 519.347426 
L 448.305137 516.512366 
L 451.077827 456.235694 
L 453.850516 425.027887 
L 456.623206 343.91165 
L 459.395895 346.132597 
L 462.168585 358.241586 
L 464.941274 381.139747 
L 467.713964 440.812797 
L 470.486653 463.998939 
L 473.259343 551.048752 
L 476.032032 573.951023 
L 478.804722 591.464251 
L 481.577411 531.866952 
L 484.350101 520.490973 
L 487.12279 474.66019 
L 489.89548 387.254993 
L 492.668169 358.372763 
L 495.440859 318.867781 
L 498.213548 391.19758 
L 500.986238 392.820315 
L 503.758927 466.941294 
L 506.531617 514.793457 
L 509.304306 580.254609 
L 512.076996 600.775563 
L 514.849685 537.165791 
L 517.622375 538.77155 
L 520.395064 477.062051 
L 523.167754 449.737065 
L 525.940443 350.295396 
L 528.713133 331.461544 
L 531.485823 362.989179 
L 534.258512 385.204413 
L 537.031202 455.193464 
L 539.803891 472.794649 
L 542.576581 552.795666 
L 545.34927 572.739059 
L 548.12196 582.540802 
L 550.894649 513.653404 
L 553.667339 511.757511 
L 556.440028 477.45477 
L 559.212718 389.870375 
L 561.985407 373.689478 
L 564.758097 334.840693 
L 567.530786 397.771036 
L 570.303476 383.740518 
L 573.076165 451.223812 
L 575.848855 496.317465 
L 578.621544 572.291452 
L 581.394234 591.9264 
L 584.166923 522.740292 
L 586.939613 518.972225 
L 589.712302 466.609695 
L 592.484992 430.694754 
L 595.257681 363.774325 
L 598.030371 356.018939 
L 600.80306 377.212577 
L 603.57575 391.974409 
L 606.348439 412.496932 
L 609.121129 353.428346 
L 611.893818 371.54312 
L 614.666508 333.045342 
L 617.439197 369.40379 
L 620.211887 328.484693 
L 622.984576 297.983056 
L 634.075334 297.983056 
L 636.848024 338.823507 
L 639.620713 329.916839 
L 642.393403 404.268015 
L 645.166092 445.684374 
L 647.938782 533.439862 
L 650.711471 555.613741 
L 653.484161 498.401758 
L 656.256851 499.946072 
L 659.02954 439.808801 
L 661.80223 412.397259 
L 664.574919 328.219378 
L 667.347609 319.492489 
L 670.120298 336.231508 
L 672.892988 365.635098 
L 675.665677 434.051148 
L 678.438367 460.270974 
L 681.211056 548.976388 
L 683.983746 580.149057 
L 686.756435 585.427964 
L 689.529125 513.609864 
L 692.301814 500.163564 
L 695.074504 453.922795 
L 697.847193 371.215344 
L 700.619883 337.700597 
L 703.392572 308.816545 
L 706.165262 382.521908 
L 708.937951 385.361753 
L 711.710641 465.70724 
L 714.48333 522.963621 
L 717.25602 590.822724 
L 720.028709 602.83529 
L 722.801399 544.423391 
L 725.574088 531.865061 
L 728.346778 477.323572 
L 731.119467 447.549974 
L 733.892157 351.297616 
L 736.664846 346.862397 
L 739.437536 383.009741 
L 742.210225 403.568146 
L 744.982915 462.224593 
L 747.755604 485.401676 
L 750.528294 569.277296 
L 753.300983 581.220374 
L 756.073673 595.671969 
L 758.846362 518.118721 
L 761.619052 505.936422 
L 764.391741 470.556139 
L 767.164431 388.283429 
L 769.93712 359.957187 
L 772.70981 328.670287 
L 775.4825 394.924702 
L 778.255189 391.363873 
L 781.027879 467.346155 
L 783.800568 519.381276 
L 786.573258 584.627797 
L 789.345947 598.929977 
L 792.118637 530.885647 
L 794.891326 524.88857 
L 797.664016 470.122718 
L 800.436705 450.863375 
L 803.209395 364.734295 
L 805.982084 353.161526 
L 808.754774 380.980937 
L 811.527463 403.413631 
L 814.300153 463.407783 
L 817.072842 481.42013 
L 819.845532 557.213909 
L 822.618221 575.100575 
L 825.390911 580.343702 
L 828.1636 520.181082 
L 830.93629 513.256609 
L 833.708979 472.613705 
L 836.481669 382.291137 
L 839.254358 359.686438 
L 842.027048 327.459017 
L 844.799737 396.312516 
L 847.572427 403.880637 
L 850.345116 468.024247 
L 853.117806 523.779777 
L 855.890495 582.476103 
L 858.663185 588.575721 
L 861.435874 523.148873 
L 864.208564 521.16377 
L 866.981253 454.611021 
L 869.753943 434.769669 
L 872.526632 349.827657 
L 875.299322 343.293197 
L 878.072011 369.172349 
L 880.844701 403.608476 
L 883.61739 456.340168 
L 886.39008 462.867953 
L 889.162769 548.270239 
L 891.935459 576.043774 
L 894.708148 579.29068 
L 897.480838 513.29517 
L 900.253528 495.673573 
L 903.026217 455.473173 
L 905.798907 386.518992 
L 908.571596 374.145382 
L 911.344286 342.908492 
L 914.116975 412.766825 
L 916.889665 416.061748 
L 919.662354 479.890057 
L 922.435044 536.586911 
L 925.207733 595.690215 
L 927.980423 612.607714 
L 930.753112 538.430145 
L 933.525802 522.441542 
L 936.298491 466.621895 
L 939.071181 442.791027 
L 941.84387 378.569029 
L 944.61656 381.458376 
L 947.389249 413.608739 
L 950.161939 432.222199 
L 952.934628 507.031224 
L 955.707318 515.890072 
L 958.480007 596.820094 
L 961.252697 614.429228 
L 964.025386 621.390809 
L 966.798076 542.28168 
L 969.570765 531.198699 
L 972.343455 495.711864 
L 975.116144 422.518386 
L 977.888834 396.105181 
L 980.661523 364.73969 
L 983.434213 428.189104 
L 986.206902 432.463741 
L 988.979592 495.132898 
L 991.752281 551.479939 
L 994.524971 610.926036 
L 997.29766 619.416031 
L 1000.07035 560.530245 
L 1002.843039 554.714766 
L 1005.615729 488.648822 
L 1008.388418 455.269972 
L 1011.161108 360.528054 
L 1013.933797 357.824678 
L 1016.706487 382.818219 
L 1019.479177 405.275508 
L 1022.251866 479.363411 
L 1025.024556 503.274143 
L 1027.797245 587.683411 
L 1030.569935 608.009007 
L 1033.342624 618.135028 
L 1036.115314 554.790411 
L 1038.888003 544.309972 
L 1041.660693 497.28048 
L 1044.433382 416.03299 
L 1047.206072 386.927246 
L 1049.978761 347.727996 
L 1052.751451 420.961499 
L 1055.52414 421.840189 
L 1058.29683 493.81515 
L 1061.069519 549.193296 
L 1063.842209 610.210818 
L 1066.614898 616.960613 
L 1069.387588 550.389447 
L 1072.160277 541.409288 
L 1074.932967 477.076322 
L 1077.705656 444.697535 
L 1080.478346 372.796474 
L 1083.251035 366.294774 
L 1086.023725 393.471 
L 1088.796414 422.530845 
L 1091.569104 503.631855 
L 1094.341793 522.223036 
L 1097.114483 605.90529 
L 1099.887172 606.348616 
L 1102.659862 613.248802 
L 1105.432551 540.829 
L 1108.205241 530.364418 
L 1110.97793 488.300241 
L 1113.75062 420.130807 
L 1116.523309 395.951067 
L 1119.295999 350.526945 
L 1122.068688 426.90224 
L 1124.841378 437.434651 
L 1127.614067 502.363367 
L 1133.159446 615.202763 
L 1135.932136 614.097728 
L 1138.704825 537.182386 
L 1141.477515 545.096681 
L 1144.250205 486.758358 
L 1147.022894 461.609025 
L 1149.795584 382.697221 
L 1152.568273 378.366273 
L 1155.340963 416.187701 
L 1158.113652 428.618185 
L 1160.886342 510.909655 
L 1163.659031 521.27004 
L 1166.431721 594.750456 
L 1169.20441 602.316036 
L 1171.9771 609.470845 
L 1174.749789 539.330767 
L 1177.522479 528.129373 
L 1180.295168 483.922564 
L 1183.067858 412.433342 
L 1185.840547 393.500956 
L 1188.613237 356.813437 
L 1191.385926 437.209504 
L 1194.158616 440.924535 
L 1196.931305 504.881402 
L 1199.703995 562.795221 
L 1202.476684 610.396149 
L 1205.249374 608.250358 
L 1208.022063 560.359135 
L 1210.794753 553.78263 
L 1213.567442 492.876603 
L 1216.340132 472.867217 
L 1219.112821 375.837184 
L 1221.885511 359.541275 
L 1224.6582 391.499736 
L 1227.43089 413.438381 
L 1230.203579 490.190451 
L 1232.976269 500.497761 
L 1235.748958 582.200047 
L 1238.521648 602.087439 
L 1241.294337 612.552935 
L 1244.067027 539.080708 
L 1246.839716 542.461992 
L 1249.612406 491.085262 
L 1252.385095 418.777399 
L 1255.157785 381.700978 
L 1257.930474 336.914425 
L 1260.703164 412.732824 
L 1263.475854 425.06708 
L 1266.248543 488.322086 
L 1269.021233 547.111803 
L 1271.793922 597.990434 
L 1274.566612 614.671908 
L 1277.339301 551.006903 
L 1280.111991 537.96072 
L 1282.88468 473.24123 
L 1285.65737 441.693704 
L 1288.430059 369.287048 
L 1291.202749 367.334299 
L 1293.975438 408.38835 
L 1296.748128 426.206864 
L 1299.520817 496.967403 
L 1302.293507 515.065178 
L 1305.066196 581.133627 
L 1307.838886 588.533501 
L 1310.611575 594.106368 
L 1313.384265 519.272568 
L 1316.156954 497.122602 
L 1318.929644 464.206831 
L 1321.702333 399.953755 
L 1324.475023 417.316964 
L 1327.247712 371.425802 
L 1330.020402 439.206411 
L 1332.793091 450.736967 
L 1335.565781 513.679323 
L 1338.33847 561.71675 
L 1341.11116 613.521681 
L 1343.883849 616.365108 
L 1346.656539 553.574576 
L 1349.429228 546.197191 
L 1352.201918 487.087881 
L 1354.974607 445.731014 
L 1357.747297 375.629228 
L 1360.519986 380.710627 
L 1363.292676 405.765115 
L 1366.065365 422.092061 
L 1368.838055 494.082339 
L 1371.610744 515.294454 
L 1374.383434 585.366393 
L 1377.156123 587.893732 
L 1379.928813 596.176572 
L 1382.701502 533.254375 
L 1385.474192 510.310124 
L 1388.246882 469.354329 
L 1391.019571 405.622806 
L 1393.792261 400.990186 
L 1396.56495 374.04976 
L 1399.33764 444.001419 
L 1402.110329 454.438654 
L 1404.883019 517.333927 
L 1407.655708 570.074883 
L 1410.428398 599.212396 
L 1413.201087 605.594276 
L 1415.973777 536.421527 
L 1418.746466 528.740926 
L 1421.519156 483.900286 
L 1424.291845 455.087081 
L 1427.064535 395.067089 
L 1429.837224 385.083474 
L 1432.609914 413.809248 
L 1435.382603 433.689138 
L 1438.155293 506.823816 
L 1440.927982 531.629857 
L 1443.700672 594.554864 
L 1446.473361 608.611539 
L 1449.246051 609.963037 
L 1452.01874 537.177055 
L 1454.79143 512.70352 
L 1457.564119 470.703828 
L 1460.336809 404.553297 
L 1463.109498 412.755308 
L 1465.882188 374.741307 
L 1468.654877 450.458267 
L 1471.427567 455.375905 
L 1474.200256 520.043762 
L 1476.972946 570.818806 
L 1479.745635 604.385908 
L 1482.518325 602.302598 
L 1485.291014 548.937197 
L 1488.063704 539.222039 
L 1488.063704 539.222039 
" style="fill:none;stroke:#e8000b;stroke-linecap:round;stroke-width:1.4;"/>
   </g>
   <g id="line2d_34">
    <path clip-path="url(#pf42c8254c2)" d="M 207.08115 330.638247 
L 209.853839 401.553634 
L 212.626529 462.072983 
L 215.399218 487.398631 
L 218.171908 548.648776 
L 220.944597 595.073329 
L 223.717287 667.180034 
L 226.489976 605.509533 
L 229.262666 552.69957 
L 232.035355 463.575641 
L 234.808045 435.260264 
L 237.580734 410.209399 
L 240.353424 339.522063 
L 243.126113 358.182037 
L 245.898803 418.936502 
L 248.671492 483.069353 
L 251.444182 502.634503 
L 254.216871 571.352911 
L 256.989561 631.730236 
L 259.76225 632.866514 
L 262.53494 574.690105 
L 265.307629 499.994278 
L 268.080319 467.3748 
L 270.853008 405.946938 
L 273.625698 383.999844 
L 276.398387 313.988297 
L 281.943766 452.213432 
L 284.716456 484.814825 
L 287.489145 541.877507 
L 290.261835 588.828628 
L 293.034524 659.135063 
L 295.807214 589.892253 
L 298.579904 542.537743 
L 301.352593 453.91651 
L 304.125283 444.070288 
L 306.897972 414.732527 
L 309.670662 332.206174 
L 312.443351 338.356718 
L 315.216041 400.965897 
L 317.98873 486.29936 
L 320.76142 501.246367 
L 323.534109 563.407896 
L 326.306799 636.366997 
L 329.079488 614.000528 
L 331.852178 566.780924 
L 334.624867 498.533626 
L 337.397557 467.314992 
L 340.170246 406.891437 
L 342.942936 363.954402 
L 345.715625 314.077283 
L 348.488315 369.271236 
L 351.261004 444.232293 
L 354.033694 473.983948 
L 356.806383 539.732547 
L 359.579073 596.655158 
L 362.351762 676.272672 
L 367.897141 565.342047 
L 370.669831 463.694863 
L 373.44252 440.551141 
L 376.21521 406.022749 
L 378.987899 330.32673 
L 381.760589 339.824748 
L 384.533278 407.138345 
L 387.305968 488.132703 
L 390.078657 495.960701 
L 392.851347 545.79132 
L 395.624036 620.591477 
L 398.396726 602.94943 
L 403.942105 489.570964 
L 406.714794 464.341015 
L 409.487484 392.168765 
L 412.260174 368.398001 
L 415.032863 318.621903 
L 417.805553 385.208172 
L 420.578242 456.076572 
L 423.350932 483.768111 
L 426.123621 541.536454 
L 428.896311 585.680717 
L 431.669 651.09287 
L 434.44169 593.306381 
L 437.214379 541.26808 
L 439.987069 449.334861 
L 442.759758 433.908793 
L 445.532448 410.380021 
L 448.305137 323.486228 
L 451.077827 341.303846 
L 453.850516 412.417251 
L 456.623206 492.227923 
L 459.395895 497.611361 
L 464.941274 641.364119 
L 467.713964 628.437429 
L 470.486653 572.933394 
L 473.259343 503.990543 
L 476.032032 476.332266 
L 478.804722 396.159469 
L 481.577411 359.748284 
L 484.350101 299.367261 
L 487.12279 370.207339 
L 489.89548 448.755744 
L 492.668169 485.88177 
L 495.440859 541.682768 
L 498.213548 592.049721 
L 500.986238 653.964468 
L 503.758927 584.771449 
L 506.531617 529.842774 
L 509.304306 452.102482 
L 512.076996 438.662096 
L 514.849685 396.007449 
L 517.622375 311.216798 
L 520.395064 324.371016 
L 523.167754 388.131513 
L 525.940443 483.685296 
L 528.713133 503.840776 
L 531.485823 560.575883 
L 534.258512 629.984195 
L 537.031202 609.003711 
L 539.803891 556.768864 
L 542.576581 494.932934 
L 545.34927 475.045191 
L 548.12196 396.976722 
L 550.894649 370.40729 
L 553.667339 305.843768 
L 556.440028 367.962853 
L 559.212718 446.009316 
L 561.985407 473.255199 
L 567.530786 581.326572 
L 570.303476 657.526399 
L 573.076165 592.970268 
L 575.848855 545.810978 
L 578.621544 456.705134 
L 581.394234 441.951708 
L 584.166923 410.636317 
L 586.939613 327.677952 
L 589.712302 338.648465 
L 595.257681 479.836941 
L 598.030371 489.693326 
L 600.80306 549.748121 
L 603.57575 629.259131 
L 606.348439 424.888433 
L 609.121129 419.122009 
L 611.893818 415.635641 
L 614.666508 457.888965 
L 617.439197 435.348808 
L 620.211887 384.6126 
L 622.984576 381.649176 
L 625.757266 425.934504 
L 628.529955 423.432593 
L 631.302645 448.721275 
L 634.075334 472.450061 
L 639.620713 636.941649 
L 645.166092 543.494272 
L 647.938782 451.913478 
L 650.711471 434.906812 
L 653.484161 391.842894 
L 656.256851 307.29548 
L 659.02954 329.498727 
L 661.80223 394.668092 
L 664.574919 477.553909 
L 667.347609 487.890901 
L 672.892988 629.355774 
L 675.665677 619.893548 
L 678.438367 564.689321 
L 681.211056 491.508985 
L 683.983746 463.551442 
L 686.756435 388.042363 
L 689.529125 358.836086 
L 692.301814 305.138894 
L 695.074504 378.35569 
L 697.847193 448.25917 
L 700.619883 498.997916 
L 703.392572 545.813294 
L 706.165262 595.495143 
L 708.937951 660.251487 
L 711.710641 584.400472 
L 714.48333 529.824113 
L 717.25602 447.154204 
L 720.028709 433.660797 
L 722.801399 387.106339 
L 725.574088 310.461203 
L 728.346778 322.364618 
L 731.119467 387.130855 
L 733.892157 479.873145 
L 736.664846 488.265652 
L 739.437536 536.480067 
L 742.210225 610.701763 
L 744.982915 601.364229 
L 750.528294 483.944682 
L 753.300983 463.55583 
L 756.073673 382.956425 
L 758.846362 357.288369 
L 761.619052 300.269928 
L 767.164431 439.490255 
L 772.70981 531.058446 
L 775.4825 581.062378 
L 778.255189 651.988041 
L 781.027879 581.427269 
L 783.800568 530.651026 
L 786.573258 449.910161 
L 789.345947 436.84297 
L 792.118637 397.23828 
L 794.891326 316.733933 
L 797.664016 330.067196 
L 800.436705 387.534076 
L 803.209395 468.721955 
L 805.982084 480.228273 
L 808.754774 535.489944 
L 811.527463 607.656206 
L 814.300153 597.24645 
L 819.845532 483.947352 
L 822.618221 460.567882 
L 825.390911 383.895319 
L 828.1636 350.861885 
L 830.93629 289.23707 
L 833.708979 358.520923 
L 836.481669 436.567402 
L 839.254358 471.796684 
L 842.027048 524.25821 
L 844.799737 569.951797 
L 847.572427 633.938167 
L 850.345116 566.967696 
L 853.117806 514.907322 
L 855.890495 438.101673 
L 858.663185 431.31315 
L 861.435874 390.433311 
L 864.208564 306.868888 
L 866.981253 333.960253 
L 869.753943 392.364102 
L 872.526632 475.628781 
L 875.299322 484.399762 
L 878.072011 543.792532 
L 880.844701 607.006655 
L 883.61739 599.039683 
L 886.39008 555.276442 
L 889.162769 487.204378 
L 891.935459 458.44371 
L 894.708148 385.830615 
L 897.480838 355.44511 
L 900.253528 312.340285 
L 903.026217 388.671322 
L 905.798907 448.857282 
L 908.571596 476.932159 
L 914.116975 568.784862 
L 916.889665 633.61863 
L 919.662354 579.854923 
L 922.435044 521.59194 
L 925.207733 447.661706 
L 927.980423 432.734791 
L 930.753112 399.188655 
L 933.525802 335.951227 
L 936.298491 355.129435 
L 939.071181 423.251087 
L 941.84387 483.595429 
L 944.61656 485.917221 
L 947.389249 529.402659 
L 950.161939 606.470179 
L 952.934628 582.471974 
L 955.707318 546.176351 
L 958.480007 484.015599 
L 961.252697 460.881669 
L 964.025386 383.55555 
L 966.798076 352.544323 
L 969.570765 298.79728 
L 972.343455 368.045338 
L 975.116144 434.357426 
L 977.888834 473.739935 
L 983.434213 559.153404 
L 986.206902 623.755403 
L 991.752281 512.615556 
L 994.524971 439.554144 
L 997.29766 428.009088 
L 1000.07035 372.276657 
L 1002.843039 297.458537 
L 1005.615729 316.241429 
L 1008.388418 390.521099 
L 1011.161108 481.857273 
L 1013.933797 486.800888 
L 1016.706487 545.181386 
L 1019.479177 618.263893 
L 1022.251866 606.416384 
L 1025.024556 555.571648 
L 1027.797245 490.632483 
L 1030.569935 465.85737 
L 1033.342624 385.904215 
L 1036.115314 340.292698 
L 1038.888003 280.264905 
L 1041.660693 356.223978 
L 1044.433382 428.480632 
L 1047.206072 469.579449 
L 1049.978761 516.056905 
L 1052.751451 558.737297 
L 1055.52414 627.723585 
L 1058.29683 563.758091 
L 1061.069519 509.126368 
L 1063.842209 435.104167 
L 1066.614898 423.356419 
L 1069.387588 386.66103 
L 1072.160277 310.662622 
L 1074.932967 338.781024 
L 1077.705656 412.945469 
L 1080.478346 481.150414 
L 1083.251035 488.886662 
L 1086.023725 539.570274 
L 1088.796414 604.579831 
L 1091.569104 583.852768 
L 1094.341793 534.113897 
L 1097.114483 471.112512 
L 1099.887172 459.178399 
L 1102.659862 383.689736 
L 1105.432551 349.082582 
L 1108.205241 290.031604 
L 1110.97793 369.037741 
L 1113.75062 429.421203 
L 1116.523309 468.031786 
L 1119.295999 518.306575 
L 1122.068688 554.187497 
L 1124.841378 616.050483 
L 1130.386757 502.788572 
L 1133.159446 431.481143 
L 1135.932136 423.932524 
L 1138.704825 394.935062 
L 1141.477515 308.127693 
L 1144.250205 330.745286 
L 1147.022894 397.954412 
L 1149.795584 476.105604 
L 1152.568273 478.417088 
L 1155.340963 515.595009 
L 1158.113652 593.809522 
L 1160.886342 572.288167 
L 1163.659031 532.188809 
L 1166.431721 475.819664 
L 1169.20441 457.572576 
L 1171.9771 382.320664 
L 1174.749789 350.559644 
L 1177.522479 298.665268 
L 1180.295168 378.982621 
L 1183.067858 441.695377 
L 1185.840547 474.814392 
L 1188.613237 513.682367 
L 1191.385926 544.820147 
L 1194.158616 613.345446 
L 1196.931305 558.450067 
L 1199.703995 492.357989 
L 1202.476684 430.000169 
L 1205.249374 427.326228 
L 1208.022063 369.843973 
L 1210.794753 290.157561 
L 1213.567442 312.865281 
L 1216.340132 377.591292 
L 1219.112821 468.073011 
L 1221.885511 482.594826 
L 1224.6582 527.969803 
L 1227.43089 600.014789 
L 1230.203579 584.557374 
L 1232.976269 541.440561 
L 1235.748958 477.934934 
L 1238.521648 454.182398 
L 1241.294337 377.244079 
L 1244.067027 345.788022 
L 1246.839716 279.183491 
L 1249.612406 361.73762 
L 1252.385095 429.952122 
L 1257.930474 520.587194 
L 1260.703164 555.394068 
L 1263.475854 618.219456 
L 1266.248543 565.077362 
L 1269.021233 502.672964 
L 1271.793922 437.534333 
L 1274.566612 418.889661 
L 1277.339301 379.67772 
L 1280.111991 312.114161 
L 1282.88468 342.873652 
L 1288.430059 484.425518 
L 1291.202749 482.249954 
L 1293.975438 513.149805 
L 1296.748128 584.604367 
L 1299.520817 575.276017 
L 1302.293507 529.632972 
L 1305.066196 474.956661 
L 1307.838886 461.325867 
L 1310.611575 389.70098 
L 1313.384265 367.425202 
L 1316.156954 332.856329 
L 1318.929644 411.928169 
L 1321.702333 467.474221 
L 1324.475023 470.444748 
L 1327.247712 512.468242 
L 1330.020402 545.023217 
L 1332.793091 607.206252 
L 1335.565781 554.811596 
L 1338.33847 497.641996 
L 1341.11116 433.3315 
L 1343.883849 428.289548 
L 1346.656539 386.638902 
L 1349.429228 314.337699 
L 1352.201918 339.804555 
L 1354.974607 419.432954 
L 1357.747297 490.312904 
L 1360.519986 474.628372 
L 1363.292676 520.021039 
L 1366.065365 591.808167 
L 1368.838055 580.086273 
L 1371.610744 529.486202 
L 1374.383434 474.249073 
L 1377.156123 460.822918 
L 1379.928813 394.681859 
L 1382.701502 354.739847 
L 1385.474192 319.877398 
L 1388.246882 403.529543 
L 1391.019571 462.266689 
L 1393.792261 485.197096 
L 1396.56495 502.891871 
L 1399.33764 538.588417 
L 1402.110329 597.309808 
L 1404.883019 541.737576 
L 1407.655708 478.080421 
L 1410.428398 432.872258 
L 1413.201087 424.295603 
L 1415.973777 400.353709 
L 1418.746466 326.6265 
L 1421.519156 350.198198 
L 1424.291845 419.779973 
L 1427.064535 482.539596 
L 1429.837224 484.109942 
L 1432.609914 523.056699 
L 1435.382603 595.279126 
L 1438.155293 578.993874 
L 1443.700672 470.68052 
L 1446.473361 451.411986 
L 1449.246051 388.091056 
L 1452.01874 364.194629 
L 1454.79143 328.74889 
L 1457.564119 413.074479 
L 1460.336809 467.491906 
L 1463.109498 483.197543 
L 1465.882188 515.452614 
L 1468.654877 539.347716 
L 1471.427567 602.905041 
L 1474.200256 545.379128 
L 1476.972946 483.790177 
L 1479.745635 432.394412 
L 1482.518325 429.675478 
L 1485.291014 397.07536 
L 1488.063704 325.876035 
L 1488.063704 325.876035 
" style="fill:none;stroke:#8a2be2;stroke-linecap:round;stroke-width:1.4;"/>
   </g>
   <g id="patch_3">
    <path d="M 208.6875 91.98 
L 1502.55 91.98 
" style="fill:none;stroke:#cccccc;stroke-linecap:square;stroke-linejoin:miter;"/>
   </g>
   <g id="patch_4">
    <path d="M 1502.55 827.82 
L 1502.55 91.98 
" style="fill:none;stroke:#cccccc;stroke-linecap:square;stroke-linejoin:miter;"/>
   </g>
   <g id="patch_5">
    <path d="M 208.6875 827.82 
L 1502.55 827.82 
" style="fill:none;stroke:#cccccc;stroke-linecap:square;stroke-linejoin:miter;"/>
   </g>
   <g id="patch_6">
    <path d="M 208.6875 827.82 
L 208.6875 91.98 
" style="fill:none;stroke:#cccccc;stroke-linecap:square;stroke-linejoin:miter;"/>
   </g>
   <g id="text_12">
    <!-- [['dir'], ['ar'], ['dir'], ['ar']] -->
    <defs>
     <path d="M 0.78125 -20.75 
L 0.78125 -14.453125 
L 12.15625 -14.453125 
L 12.15625 66.15625 
L 0.78125 66.15625 
L 0.78125 72.46875 
L 20.65625 72.46875 
L 20.65625 -20.75 
z
" id="LiberationSans-5d"/>
     <path d="M 12.984375 47.171875 
L 6.109375 47.171875 
L 5.078125 68.796875 
L 14.0625 68.796875 
z
" id="LiberationSans-27"/>
     <path d="M 18.796875 10.6875 
L 18.796875 2.484375 
Q 18.796875 -0.09375 18.578125 -2.21875 
Q 18.359375 -4.34375 17.875 -6.171875 
Q 17.390625 -8.015625 16.671875 -9.625 
Q 15.96875 -11.234375 14.984375 -12.796875 
L 8.984375 -12.796875 
Q 11.1875 -9.625 12.375 -6.390625 
Q 13.578125 -3.171875 13.578125 0 
L 9.28125 0 
L 9.28125 10.6875 
z
" id="LiberationSans-2c"/>
     <path d="M 7.125 -20.75 
L 7.125 72.46875 
L 27 72.46875 
L 27 66.15625 
L 15.625 66.15625 
L 15.625 -14.453125 
L 27 -14.453125 
L 27 -20.75 
z
" id="LiberationSans-5b"/>
    </defs>
    <g style="fill:#262626;" transform="translate(807.74775 86.98)scale(0.096 -0.096)">
     <use xlink:href="#LiberationSans-5b"/>
     <use x="27.783203125" xlink:href="#LiberationSans-5b"/>
     <use x="55.56640625" xlink:href="#LiberationSans-27"/>
     <use x="74.658203125" xlink:href="#LiberationSans-64"/>
     <use x="130.2734375" xlink:href="#LiberationSans-69"/>
     <use x="152.490234375" xlink:href="#LiberationSans-72"/>
     <use x="185.791015625" xlink:href="#LiberationSans-27"/>
     <use x="204.8828125" xlink:href="#LiberationSans-5d"/>
     <use x="232.666015625" xlink:href="#LiberationSans-2c"/>
     <use x="260.44921875" xlink:href="#LiberationSans-20"/>
     <use x="288.232421875" xlink:href="#LiberationSans-5b"/>
     <use x="316.015625" xlink:href="#LiberationSans-27"/>
     <use x="335.107421875" xlink:href="#LiberationSans-61"/>
     <use x="390.72265625" xlink:href="#LiberationSans-72"/>
     <use x="424.0234375" xlink:href="#LiberationSans-27"/>
     <use x="443.115234375" xlink:href="#LiberationSans-5d"/>
     <use x="470.8984375" xlink:href="#LiberationSans-2c"/>
     <use x="498.681640625" xlink:href="#LiberationSans-20"/>
     <use x="526.46484375" xlink:href="#LiberationSans-5b"/>
     <use x="554.248046875" xlink:href="#LiberationSans-27"/>
     <use x="573.33984375" xlink:href="#LiberationSans-64"/>
     <use x="628.955078125" xlink:href="#LiberationSans-69"/>
     <use x="651.171875" xlink:href="#LiberationSans-72"/>
     <use x="684.47265625" xlink:href="#LiberationSans-27"/>
     <use x="703.564453125" xlink:href="#LiberationSans-5d"/>
     <use x="731.34765625" xlink:href="#LiberationSans-2c"/>
     <use x="759.130859375" xlink:href="#LiberationSans-20"/>
     <use x="786.9140625" xlink:href="#LiberationSans-5b"/>
     <use x="814.697265625" xlink:href="#LiberationSans-27"/>
     <use x="833.7890625" xlink:href="#LiberationSans-61"/>
     <use x="889.404296875" xlink:href="#LiberationSans-72"/>
     <use x="922.705078125" xlink:href="#LiberationSans-27"/>
     <use x="941.796875" xlink:href="#LiberationSans-5d"/>
     <use x="969.580078125" xlink:href="#LiberationSans-5d"/>
    </g>
   </g>
   <g id="legend_1">
    <g id="line2d_35">
     <path d="M 1438.265 102.1775 
L 1454.265 102.1775 
" style="fill:none;stroke:#003fff;stroke-linecap:round;stroke-width:1.4;"/>
    </g>
    <g id="line2d_36"/>
    <g id="text_13">
     <!-- direction -->
     <g style="fill:#262626;" transform="translate(1460.665 104.9775)scale(0.08 -0.08)">
      <use xlink:href="#LiberationSans-64"/>
      <use x="55.615234375" xlink:href="#LiberationSans-69"/>
      <use x="77.83203125" xlink:href="#LiberationSans-72"/>
      <use x="111.1328125" xlink:href="#LiberationSans-65"/>
      <use x="166.748046875" xlink:href="#LiberationSans-63"/>
      <use x="216.748046875" xlink:href="#LiberationSans-74"/>
      <use x="244.53125" xlink:href="#LiberationSans-69"/>
      <use x="266.748046875" xlink:href="#LiberationSans-6f"/>
      <use x="322.36328125" xlink:href="#LiberationSans-6e"/>
     </g>
    </g>
    <g id="line2d_37">
     <path d="M 1438.265 113.635 
L 1454.265 113.635 
" style="fill:none;stroke:#03ed3a;stroke-linecap:round;stroke-width:1.4;"/>
    </g>
    <g id="line2d_38"/>
    <g id="text_14">
     <!-- raw angle -->
     <defs>
      <path d="M 57.328125 0 
L 47.125 0 
L 38.671875 34.078125 
Q 38.28125 35.40625 37.859375 37.359375 
Q 37.453125 39.3125 37.0625 41.15625 
Q 36.578125 43.3125 36.140625 45.609375 
Q 35.6875 43.40625 35.203125 41.265625 
Q 34.8125 39.40625 34.34375 37.40625 
Q 33.890625 35.40625 33.5 33.890625 
L 24.8125 0 
L 14.65625 0 
L -0.140625 52.828125 
L 8.546875 52.828125 
L 17.484375 16.9375 
Q 17.828125 15.828125 18.15625 14.1875 
Q 18.5 12.546875 18.84375 10.984375 
Q 19.1875 9.1875 19.578125 7.28125 
Q 19.96875 9.125 20.40625 10.890625 
Q 20.796875 12.40625 21.1875 13.96875 
Q 21.578125 15.53125 21.875 16.546875 
L 31.453125 52.828125 
L 40.875 52.828125 
L 50.09375 16.546875 
Q 50.4375 15.28125 50.828125 13.671875 
Q 51.21875 12.0625 51.5625 10.640625 
Q 51.953125 8.984375 52.34375 7.28125 
Q 52.734375 9.125 53.125 10.890625 
Q 53.46875 12.40625 53.828125 14.03125 
Q 54.203125 15.671875 54.546875 16.9375 
L 63.875 52.828125 
L 72.46875 52.828125 
z
" id="LiberationSans-77"/>
     </defs>
     <g style="fill:#262626;" transform="translate(1460.665 116.435)scale(0.08 -0.08)">
      <use xlink:href="#LiberationSans-72"/>
      <use x="33.30078125" xlink:href="#LiberationSans-61"/>
      <use x="88.916015625" xlink:href="#LiberationSans-77"/>
      <use x="161.1328125" xlink:href="#LiberationSans-20"/>
      <use x="188.916015625" xlink:href="#LiberationSans-61"/>
      <use x="244.53125" xlink:href="#LiberationSans-6e"/>
      <use x="300.146484375" xlink:href="#LiberationSans-67"/>
      <use x="355.76171875" xlink:href="#LiberationSans-6c"/>
      <use x="377.978515625" xlink:href="#LiberationSans-65"/>
     </g>
    </g>
    <g id="line2d_39">
     <path d="M 1438.265 125.0925 
L 1454.265 125.0925 
" style="fill:none;stroke:#e8000b;stroke-linecap:round;stroke-width:1.4;"/>
    </g>
    <g id="line2d_40"/>
    <g id="text_15">
     <!-- direction -->
     <g style="fill:#262626;" transform="translate(1460.665 127.8925)scale(0.08 -0.08)">
      <use xlink:href="#LiberationSans-64"/>
      <use x="55.615234375" xlink:href="#LiberationSans-69"/>
      <use x="77.83203125" xlink:href="#LiberationSans-72"/>
      <use x="111.1328125" xlink:href="#LiberationSans-65"/>
      <use x="166.748046875" xlink:href="#LiberationSans-63"/>
      <use x="216.748046875" xlink:href="#LiberationSans-74"/>
      <use x="244.53125" xlink:href="#LiberationSans-69"/>
      <use x="266.748046875" xlink:href="#LiberationSans-6f"/>
      <use x="322.36328125" xlink:href="#LiberationSans-6e"/>
     </g>
    </g>
    <g id="line2d_41">
     <path d="M 1438.265 136.55 
L 1454.265 136.55 
" style="fill:none;stroke:#8a2be2;stroke-linecap:round;stroke-width:1.4;"/>
    </g>
    <g id="line2d_42"/>
    <g id="text_16">
     <!-- raw angle -->
     <g style="fill:#262626;" transform="translate(1460.665 139.35)scale(0.08 -0.08)">
      <use xlink:href="#LiberationSans-72"/>
      <use x="33.30078125" xlink:href="#LiberationSans-61"/>
      <use x="88.916015625" xlink:href="#LiberationSans-77"/>
      <use x="161.1328125" xlink:href="#LiberationSans-20"/>
      <use x="188.916015625" xlink:href="#LiberationSans-61"/>
      <use x="244.53125" xlink:href="#LiberationSans-6e"/>
      <use x="300.146484375" xlink:href="#LiberationSans-67"/>
      <use x="355.76171875" xlink:href="#LiberationSans-6c"/>
      <use x="377.978515625" xlink:href="#LiberationSans-65"/>
     </g>
    </g>
   </g>
  </g>
 </g>
 <defs>
  <clipPath id="pf42c8254c2">
   <rect height="735.84" width="1293.8625" x="208.6875" y="91.98"/>
  </clipPath>
 </defs>
</svg>
